<?xml version="1.0" encoding="UTF-8"?>
<svg version="1.1" xmlns="http://www.w3.org/2000/svg" width="512" height="512">
<path d="M0 0 C3.55007248 0.00849648 7.09852337 -0.02032383 10.6484375 -0.05200195 C24.49859345 -0.09472048 37.40259441 0.95932169 50.8203125 4.44604492 C51.66461823 4.66535172 52.50892395 4.88465851 53.3788147 5.11061096 C84.59247557 13.34760535 111.68231181 28.54284372 134.9921875 50.77416992 C137.29440436 52.94919248 139.63162889 54.99231044 142.0703125 57.00854492 C175.41856887 86.03129523 192.31841763 134.62951105 195.5078125 177.44604492 C195.62743261 179.77863708 195.73305915 182.11201793 195.8203125 184.44604492 C195.8821875 185.82276367 195.8821875 185.82276367 195.9453125 187.22729492 C196.83330213 225.85484404 185.7881766 267.12168125 162.8203125 298.44604492 C161.64284049 300.10509542 160.47538607 301.77132287 159.3203125 303.44604492 C158.835625 304.12666992 158.3509375 304.80729492 157.8515625 305.50854492 C156.50707978 307.66873381 156.50707978 307.66873381 156.8203125 311.44604492 C158.15456601 313.0448133 158.15456601 313.0448133 160.0703125 314.44604492 C163.94348045 317.64140848 167.52657766 321.02078387 171.0703125 324.57104492 C171.57723633 325.0737793 172.08416016 325.57651367 172.60644531 326.09448242 C175.56404613 329.0618443 178.26627336 332.12579404 180.8203125 335.44604492 C184.30374338 334.18813933 186.89431482 332.68930981 189.8203125 330.44604492 C194.75780284 328.80021481 200.11876876 328.1694492 204.95277214 330.45372391 C211.32551281 334.78744348 216.67239107 339.87377505 222.09423828 345.33178711 C223.08850515 346.32197955 224.08340703 347.31153469 225.07888794 348.30050659 C227.75930052 350.9673416 230.430255 353.64345939 233.0991044 356.32186031 C235.90732877 359.13773329 238.72292652 361.94621888 241.537323 364.75592041 C246.2615701 369.47472411 250.97949057 374.19978383 255.69384766 378.9284668 C261.12494723 384.37588062 266.56675609 389.81241634 272.0142709 395.24341083 C276.71052877 399.92600202 281.40084924 404.61448013 286.08636463 409.30782056 C288.87626598 412.10237127 291.66808836 414.89492194 294.46530533 417.68215179 C297.09714573 420.30524935 299.72139368 422.93572437 302.34025192 425.57178116 C303.74730982 426.98462087 305.16165292 428.39019382 306.57629395 429.79544067 C319.65008558 442.99860717 326.18966497 454.58098674 326.1965332 473.19116211 C325.98779865 486.30322011 321.91188305 494.72060073 312.74609375 503.86791992 C304.16370719 511.43050354 295.7915072 512.6634815 284.7578125 512.75854492 C283.66275391 512.78754883 282.56769531 512.81655273 281.43945312 512.84643555 C267.55108696 512.95396906 259.00026587 507.41867441 249.25 497.94995117 C247.63253191 496.32506351 246.02675363 494.6883825 244.4375 493.03588867 C242.40851207 491.02809912 240.37250466 489.17839221 238.2086792 487.3260498 C233.61693991 483.32266242 229.29868923 479.07936623 224.98925781 474.77612305 C224.14595413 473.93778427 223.30265045 473.0994455 222.43379211 472.23570251 C220.144876 469.95879406 217.85821114 467.67965978 215.57305622 465.39897728 C214.14154995 463.97042157 212.70946687 462.54244649 211.27721405 461.11463928 C206.7845517 456.63560429 202.2938607 452.15460689 197.80606675 447.67069387 C192.64552732 442.51464383 187.47849422 437.36521938 182.30576825 432.22139597 C178.29091638 428.22819373 174.28188008 424.229213 170.2771709 420.22583914 C167.89195436 417.84166693 165.50440734 415.45995002 163.11075592 413.08424377 C160.44463007 410.43518627 157.78814454 407.77681101 155.13378906 405.1159668 C154.34722427 404.33861679 153.56065948 403.56126678 152.7502594 402.76036072 C148.10562349 398.08009423 143.57521365 393.49397946 142.32421875 386.78588867 C142.49847051 379.64156663 144.29235356 375.05208932 148.8203125 369.44604492 C146.48614464 363.87024856 141.77995973 359.91938532 137.59960938 355.68994141 C136.07308324 354.13636476 134.57221619 352.5604972 133.0703125 350.9831543 C132.09785379 349.99404746 131.12394232 349.00636641 130.1484375 348.02026367 C128.83214355 346.66807739 128.83214355 346.66807739 127.48925781 345.28857422 C124.92757437 343.13039354 124.92757437 343.13039354 121.66479492 343.54370117 C118.08257174 344.68007546 115.83174977 346.42691356 112.8828125 348.75854492 C81.77123618 372.1232916 41.99731353 381.93155386 3.6328125 381.75854492 C2.77214172 381.75638977 1.91147095 381.75423462 1.02471924 381.75201416 C-11.57409009 381.70138833 -23.87792949 381.42902023 -36.1796875 378.44604492 C-37.42443848 378.14802979 -37.42443848 378.14802979 -38.69433594 377.84399414 C-71.8852216 369.62934224 -100.6302807 353.99365226 -126.1796875 331.44604492 C-127.07300781 330.68678711 -127.96632812 329.9275293 -128.88671875 329.14526367 C-135.08913058 323.7812731 -140.18228481 317.93375895 -145.1796875 311.44604492 C-145.87215576 310.56601807 -145.87215576 310.56601807 -146.57861328 309.66821289 C-172.92694918 276.15688499 -187.24514707 236.44166624 -186.77661133 193.6628418 C-186.74206303 190.18350978 -186.7561094 186.7067026 -186.77539062 183.22729492 C-186.7668391 169.51258938 -185.56466548 156.741017 -182.1796875 143.44604492 C-181.9230835 142.40222656 -181.66647949 141.3584082 -181.40209961 140.28295898 C-180.77958192 137.89846793 -180.10046862 135.54851339 -179.3671875 133.19604492 C-179.11638428 132.37797363 -178.86558105 131.55990234 -178.60717773 130.71704102 C-176.27085006 123.32835989 -173.36896054 116.26839946 -170.04443359 109.27368164 C-169.21956059 107.53031652 -168.42725805 105.77165129 -167.63671875 104.01245117 C-147.65542129 61.33634673 -107.7349654 27.47303382 -63.98901367 11.19482422 C-55.83744243 8.24711449 -47.62044058 5.44657512 -39.1796875 3.44604492 C-38.14634277 3.18637939 -37.11299805 2.92671387 -36.04833984 2.65917969 C-24.08376811 0.00554953 -12.21691979 -0.04447093 0 0 Z " fill="#364B60" transform="translate(186.1796875,-0.446044921875)"/>
<path d="M0 0 C0.81826948 -0.00367669 1.63653896 -0.00735338 2.47960448 -0.01114148 C5.23712131 -0.02220462 7.9946005 -0.0260266 10.75213623 -0.02983093 C12.72296774 -0.0360936 14.69379806 -0.04274022 16.66462708 -0.04974365 C22.03043875 -0.06717169 27.39624149 -0.07771032 32.76207447 -0.08594918 C36.11266295 -0.0910955 39.46324863 -0.0971714 42.81383514 -0.10346031 C53.29179795 -0.12251739 63.76975368 -0.13674744 74.24773049 -0.14507228 C86.35248148 -0.1548477 98.45704976 -0.1811731 110.56173635 -0.22157317 C119.91126388 -0.25170946 129.26073896 -0.26653879 138.61031413 -0.26985329 C144.19745782 -0.27220662 149.78440642 -0.28120375 155.37149811 -0.30631447 C160.62788707 -0.32955663 165.88395197 -0.33384389 171.14037895 -0.32355309 C173.069715 -0.32305668 174.9990668 -0.32940796 176.92835426 -0.34310913 C179.56273354 -0.36077083 182.19594265 -0.35375036 184.83032227 -0.34057617 C185.59356158 -0.35154542 186.3568009 -0.36251466 187.14316869 -0.37381631 C192.29092067 -0.31167841 195.21952538 0.8753085 199.16912842 4.14717102 C201.46868934 7.5965124 201.4218981 8.87571692 201.42982483 12.93867493 C201.43690964 14.1469545 201.44399445 15.35523407 201.45129395 16.60012817 C201.44899997 17.94133033 201.44649025 19.28253213 201.44378662 20.62373352 C201.44813357 22.03488434 201.45331666 23.4460328 201.45927429 24.85717773 C201.47268607 28.69441966 201.47323993 32.5315632 201.47071099 36.36882401 C201.46964149 39.5765045 201.47452478 42.78416508 201.47931641 45.99184132 C201.49042183 53.5678843 201.49084499 61.14387773 201.48480225 68.71992493 C201.478778 76.51728642 201.4910315 84.31446675 201.51237231 92.11179733 C201.53004206 98.8160199 201.53598073 105.52018512 201.53273457 112.22443008 C201.5309281 116.22381253 201.53349275 120.22306613 201.54744911 124.22242737 C201.56010836 127.99159844 201.55800767 131.76049014 201.54503822 135.52965736 C201.54157777 137.5564409 201.55279418 139.58323328 201.56460571 141.60998535 C201.52102001 149.25819729 200.63172438 155.89994213 198.16912842 163.14717102 C197.94658544 163.81318329 197.72404245 164.47919556 197.49475574 165.16539001 C192.66432834 178.88008278 185.72853163 191.16480321 176.16912842 202.14717102 C175.49365967 202.94381165 174.81819092 203.74045227 174.12225342 204.56123352 C155.73929055 225.69493171 132.62226847 240.97416053 108.10467529 254.1061554 C106.41433341 255.01528983 104.7359474 255.94658355 103.05975342 256.88154602 C102.20897217 257.34045227 101.35819092 257.79935852 100.48162842 258.27217102 C99.45489014 258.83291321 99.45489014 258.83291321 98.40740967 259.40498352 C93.04829293 261.18200303 89.08156744 260.32242224 84.12225342 257.94404602 C82.21191076 256.94602573 80.31125413 255.92931145 78.41912842 254.89717102 C77.40777832 254.35503967 76.39642822 253.81290833 75.35443115 253.25434875 C54.49249496 241.92705247 36.34850149 228.48677027 19.16912842 212.14717102 C18.24615967 211.30025696 17.32319092 210.4533429 16.37225342 209.58076477 C6.34452666 200.07708588 -1.26129206 189.00628424 -7.26837158 176.58467102 C-7.57412109 175.9618927 -7.87987061 175.33911438 -8.19488525 174.69746399 C-13.63043492 162.80936174 -15.42876305 150.99337045 -15.36431885 138.02949524 C-15.37140053 136.58712899 -15.38015484 135.14477016 -15.39042664 133.7024231 C-15.41265622 129.83727134 -15.41004746 125.97253396 -15.40110517 122.1073432 C-15.39595213 118.86865152 -15.40332089 115.6300348 -15.41057724 112.39135087 C-15.42748542 104.75585266 -15.42409508 97.12055485 -15.4072876 89.48506165 C-15.39029679 81.61903253 -15.40631608 73.75355557 -15.43851048 65.88758647 C-15.46519397 59.11015034 -15.47248811 52.33288626 -15.4639954 45.55540287 C-15.45907214 41.51719107 -15.46125193 37.47931284 -15.48178291 33.44114304 C-15.50012624 29.65358805 -15.49419925 25.86683281 -15.46958351 22.07932091 C-15.46457504 20.69138806 -15.46806656 19.30339427 -15.48073196 17.91551018 C-15.57984839 6.12159606 -15.57984839 6.12159606 -12.41642761 2.84568787 C-8.13074624 0.03031588 -5.01722192 -0.00119792 0 0 Z " fill="#FEFEFE" transform="translate(98.83087158203125,75.85282897949219)"/>
<path d="M0 0 C1.43110107 0.41862305 1.43110107 0.41862305 2.89111328 0.84570312 C15.85957448 4.71713093 28.24754662 9.25429276 40 16 C40.66435059 16.37882324 41.32870117 16.75764648 42.01318359 17.14794922 C77.78796995 37.83647173 105.08959569 73.6359995 115.875 113.5625 C126.18450185 154.46659641 119.51535773 199.95849932 98.09033203 236.23095703 C92.82729334 244.77013715 86.79628736 252.5608625 79.953125 259.89453125 C78.35939276 261.61257461 76.88541074 263.34865335 75.4375 265.1875 C51.93155537 292.30974381 12.25918433 309.39544641 -23 312 C-54.15631087 313.18596766 -82.95850459 309.61846533 -111 295 C-111.94488281 294.53078125 -112.88976562 294.0615625 -113.86328125 293.578125 C-126.71312994 286.95794246 -137.65639354 277.99130379 -148 268 C-148.92554688 267.13761719 -149.85109375 266.27523438 -150.8046875 265.38671875 C-179.57026287 237.88422105 -195.47283037 196.37759398 -197 157 C-197.55398986 122.3102751 -186.20546049 84.98956377 -164 58 C-162.92492187 56.62714844 -162.92492187 56.62714844 -161.828125 55.2265625 C-153.07635352 44.21140184 -143.26227452 35.33079271 -132 27 C-131.43071777 26.5757373 -130.86143555 26.15147461 -130.27490234 25.71435547 C-114.1635357 13.87714983 -95.28544002 5.18235684 -76 0 C-75.2579834 -0.20737793 -74.5159668 -0.41475586 -73.75146484 -0.62841797 C-50.82572471 -6.7792263 -22.72904136 -6.78855107 0 0 Z M-142 43 C-144.30144851 46.45217276 -144.25626867 47.75167191 -144.27415466 51.82032776 C-144.28412979 53.03531952 -144.29410492 54.25031128 -144.30438232 55.50212097 C-144.30527821 56.85110461 -144.30594173 58.20008841 -144.30639648 59.54907227 C-144.31401794 60.96857133 -144.32244541 62.38806627 -144.33161926 63.80755615 C-144.35359817 67.67004208 -144.36237001 71.53244879 -144.36744571 75.39499021 C-144.37109138 77.81483408 -144.37733316 80.23465733 -144.3844471 82.65449333 C-144.40897271 91.11724631 -144.42199603 99.57993793 -144.42553711 108.04272461 C-144.42915422 115.89344354 -144.4589094 123.74376712 -144.50094169 131.59436566 C-144.53585759 138.35644832 -144.55108936 145.11840167 -144.55178314 151.88057369 C-144.55257007 155.90879882 -144.56103157 159.93662318 -144.58978081 163.9647541 C-144.7247051 184.10508032 -144.48645876 202.7442761 -134.3125 220.8125 C-133.87881104 221.60253418 -133.44512207 222.39256836 -132.99829102 223.20654297 C-122.81982176 241.29546301 -107.48850422 256.53422305 -91 269 C-89.9464435 269.82920976 -88.89306825 270.65864984 -87.83984375 271.48828125 C-76.63633001 280.14850053 -64.39736462 287.19723904 -52 294 C-50.95634277 294.5779834 -49.91268555 295.1559668 -48.83740234 295.75146484 C-41.32604702 299.92939516 -41.32604702 299.92939516 -33 300 C-29.03673563 298.43180746 -25.31589893 296.51394801 -21.5625 294.5 C-20.47227539 293.92266113 -19.38205078 293.34532227 -18.25878906 292.75048828 C-1.34951364 283.60527907 14.80990978 273.0075827 29 260 C30.04045655 259.07675944 31.08215212 258.15491356 32.125 257.234375 C51.19350116 240.2648596 70.55210198 215.53183151 72.19196701 188.88007355 C72.27355105 185.16787392 72.29308537 181.46017495 72.29052734 177.74707031 C72.29652182 176.32529857 72.30332947 174.90353006 72.31088257 173.48176575 C72.32844434 169.64529081 72.33323343 165.80890524 72.33451414 161.97239399 C72.33594051 159.57305548 72.34021901 157.17373936 72.34550858 154.77440643 C72.36396778 146.39792956 72.37218329 138.02151608 72.37060547 129.64501953 C72.36940128 121.84396087 72.39056831 114.0431776 72.4220928 106.24218869 C72.44823752 99.53284191 72.45897371 92.8235853 72.45769465 86.11418796 C72.45718501 82.11168367 72.46287099 78.10942513 72.48405075 74.10697174 C72.50340601 70.34752883 72.50357672 66.58856711 72.48901749 62.82910728 C72.48692573 61.45084366 72.49165225 60.07255007 72.5037384 58.69433784 C72.51918044 56.81144308 72.50748848 54.92838431 72.49447632 53.04547119 C72.49556585 51.99248966 72.49665539 50.93950813 72.49777794 49.85461807 C71.75800402 45.61222033 69.66661009 43.23789372 66.25488186 40.70379353 C62.84051266 39.63810091 59.46302029 39.72185541 55.92189026 39.73930359 C55.10120636 39.73547804 54.28052247 39.73165249 53.43496937 39.72771102 C50.6812721 39.71738106 47.92778334 39.72137316 45.17407227 39.7253418 C43.2013225 39.72099533 41.22857442 39.7158124 39.25582886 39.70985413 C33.89431177 39.6964461 28.5328651 39.69588745 23.17133451 39.69841743 C18.69800845 39.69948588 14.22469671 39.69460701 9.75137371 39.689812 C-0.80028321 39.67871065 -11.35190452 39.678283 -21.90356445 39.68432617 C-32.79514469 39.69036803 -43.68659582 39.67805097 -54.57815403 39.6567561 C-63.92431604 39.63915351 -73.2704369 39.63313661 -82.61661488 39.63639385 C-88.2008557 39.63820893 -93.78500442 39.63554803 -99.36923027 39.62167931 C-104.61987011 39.60912737 -109.87030832 39.61102011 -115.12094498 39.62409019 C-117.04907994 39.62646125 -118.97722899 39.62370244 -120.90534782 39.61546707 C-123.53543635 39.60504262 -126.16484291 39.6130655 -128.79490662 39.6257782 C-129.9420885 39.61471677 -129.9420885 39.61471677 -131.11244577 39.60343188 C-135.58516174 39.64898092 -138.46089829 40.21167044 -142 43 Z " fill="#3D8DBB" transform="translate(228,36)"/>
<path d="M0 0 C4.42795349 1.77776572 7.8268956 4.3186477 11.18637085 7.66786194 C11.96564438 8.44005066 12.74491791 9.21223938 13.54780579 10.00782776 C14.80877327 11.27251137 14.80877327 11.27251137 16.09521484 12.56274414 C17.44006706 13.89992996 17.44006706 13.89992996 18.81208801 15.26412964 C21.26531661 17.70399558 23.71212946 20.15019988 26.15741682 22.59802175 C28.20543631 24.64711381 30.25643139 26.69321481 32.30737746 28.73937696 C37.15226221 33.5731738 41.99180867 38.41227014 46.828125 43.25463867 C51.79935607 48.23189572 56.77966107 53.19993692 61.76455915 58.16350275 C66.05723788 62.43849285 70.34400834 66.71934638 74.62622988 71.00481123 C77.17783811 73.55822252 79.73156088 76.10941827 82.29105759 78.65492439 C85.15232028 81.50113105 88.00115793 84.35947973 90.84912109 87.21899414 C91.68571762 88.04794693 92.52231415 88.87689972 93.38426208 89.73097229 C106.24119342 102.70279855 112.47104912 114.34219407 112.4777832 132.58886719 C112.26904865 145.70092519 108.19313305 154.11830581 99.02734375 163.265625 C90.44495719 170.82820862 82.0727572 172.06118658 71.0390625 172.15625 C69.94400391 172.18525391 68.84894531 172.21425781 67.72070312 172.24414062 C53.83233696 172.35167413 45.28151587 166.81637949 35.53125 157.34765625 C33.91378191 155.72276858 32.30800363 154.08608758 30.71875 152.43359375 C28.68057703 150.41671512 26.63287223 148.55506229 24.46046448 146.69230652 C20.05280367 142.84966429 15.88773065 138.79860356 11.74194336 134.67700195 C10.55272278 133.50004761 10.55272278 133.50004761 9.33947754 132.29931641 C6.74545311 129.7298924 4.15539709 127.15652667 1.56640625 124.58203125 C0.67885714 123.69980581 -0.20869198 122.81758038 -1.12313652 121.90862083 C-4.84758365 118.20532811 -8.57102035 114.5010289 -12.29056644 110.7928133 C-17.60494067 105.49474519 -22.92769533 100.20541927 -28.26218134 94.92759925 C-32.47815262 90.75489231 -36.68048429 86.5686274 -40.87808037 82.37743187 C-42.66372666 80.59852228 -44.45364369 78.82388925 -46.2478199 77.05358315 C-48.74478943 74.58799231 -51.22577788 72.10735538 -53.70336914 69.62231445 C-54.82602425 68.52426735 -54.82602425 68.52426735 -55.97135925 67.40403748 C-56.63996979 66.72710846 -57.30858032 66.05017944 -57.99745178 65.35273743 C-58.58530488 64.76819448 -59.17315798 64.18365152 -59.77882481 63.58139515 C-60.8984375 61.84375 -60.8984375 61.84375 -60.69151497 59.7583313 C-59.56201521 57.03158745 -57.84594298 55.44050346 -55.74926758 53.36987305 C-54.86777542 52.49183517 -53.98628326 51.6137973 -53.07807922 50.70915222 C-52.10811855 49.75784675 -51.13807974 48.80662093 -50.16796875 47.85546875 C-49.17413309 46.869777 -48.18103586 45.88334022 -47.18864441 44.89619446 C-44.57188751 42.29655665 -41.94670735 39.7056018 -39.31921387 37.11682129 C-35.12989381 32.98664457 -30.95298253 28.84393347 -26.77695274 24.70032692 C-25.32524934 23.26244206 -23.86971301 21.82853208 -22.41352844 20.39518738 C-17.67303969 15.70625662 -13.15913481 10.97231263 -8.8984375 5.84375 C-7.72707001 4.63997313 -6.52750135 3.46111495 -5.2734375 2.34375 C-4.72429687 1.8384375 -4.17515625 1.333125 -3.609375 0.8125 C-1.8984375 -0.15625 -1.8984375 -0.15625 0 0 Z " fill="#EE5641" transform="translate(399.8984375,340.15625)"/>
<path d="M0 0 C25.08 0 50.16 0 76 0 C76.20081834 28.13688103 76.20081834 28.13688103 76.25126934 42.12267399 C76.27888271 49.66031376 76.31383402 57.19767424 76.37719727 64.73510742 C76.4327673 71.34870127 76.4614865 77.96207335 76.47438622 84.57591057 C76.48357012 87.08949469 76.50150308 89.60306372 76.52865028 92.11651802 C76.66856185 105.61669703 76.72585971 117.56540306 71 130 C70.54389847 131.0016066 70.08779694 132.0032132 69.61787415 133.03517151 C65.78632374 141.01913227 59.92196983 147.51158088 54 154 C53.2678125 154.804375 52.535625 155.60875 51.78125 156.4375 C38.23172236 170.5937229 19.8889827 183.90736497 2 192 C1.34 192 0.68 192 0 192 C0 128.64 0 65.28 0 0 Z " fill="#3D8DBC" transform="translate(192,108)"/>
<path d="M0 0 C1.17479416 0.00131424 1.17479416 0.00131424 2.37332153 0.00265503 C50.6123469 0.17961044 92.32310094 20.56768115 126.38671875 54.16015625 C161.47425857 91.56116024 170.82797229 137.51426081 169.63287354 187.19458008 C168.26072355 229.70861818 143.5335517 268.91249817 113.375 297.4375 C97.52889845 312.00843751 77.84094417 323.30283735 57.5625 330.375 C56.8185498 330.63796875 56.07459961 330.9009375 55.30810547 331.171875 C52.89981398 332.01178089 50.48377982 332.82335841 48.0625 333.625 C47.34006104 333.8715332 46.61762207 334.11806641 45.87329102 334.37207031 C32.35745938 338.67641841 18.38037544 338.69734759 4.34619141 338.63574219 C1.43501083 338.62499081 -1.4755564 338.63571432 -4.38671875 338.6484375 C-14.24776375 338.65620876 -23.73914082 338.3705619 -33.4375 336.375 C-34.20416992 336.22901367 -34.97083984 336.08302734 -35.76074219 335.93261719 C-58.72334208 331.37849264 -79.74689213 321.42241777 -98.4375 307.375 C-98.98680176 306.96701172 -99.53610352 306.55902344 -100.10205078 306.13867188 C-128.7647879 284.74978801 -149.09104191 258.09150893 -160.80126953 224.2109375 C-161.38006269 222.54074389 -161.98362084 220.87918427 -162.58984375 219.21875 C-171.4621581 193.23793514 -172.32199304 157.98310356 -165.4375 131.375 C-165.21707031 130.4998877 -164.99664062 129.62477539 -164.76953125 128.72314453 C-153.28789419 84.48998588 -124.16548489 45.71195326 -85.08349609 21.94335938 C-58.78521349 6.6850074 -30.27557463 -0.08344376 0 0 Z M-37.4375 15.375 C-38.17564941 15.57335449 -38.91379883 15.77170898 -39.67431641 15.97607422 C-63.73698235 22.62810217 -85.65195214 35.09227398 -104.4375 51.375 C-105.28957031 52.10460937 -106.14164063 52.83421875 -107.01953125 53.5859375 C-136.80154485 79.66235494 -155.36123921 119.09101485 -158.16186523 158.51147461 C-159.17905539 177.42593594 -156.4532025 195.17083901 -151.4375 213.375 C-151.09074219 214.64472656 -150.74398437 215.91445312 -150.38671875 217.22265625 C-143.0310049 241.37614572 -129.99350269 262.41249074 -112.4375 280.375 C-111.57769531 281.29667969 -110.71789062 282.21835937 -109.83203125 283.16796875 C-102.72398924 290.61198911 -94.95275657 296.63094228 -86.4375 302.375 C-85.83953613 302.77992676 -85.24157227 303.18485352 -84.62548828 303.60205078 C-51.53639356 325.6220663 -7.8671167 332.79962207 30.93359375 325.4140625 C59.771097 319.22448958 85.69178843 306.39735566 107.38671875 286.36328125 C109.13251374 284.76793179 110.89538102 283.27564268 112.75 281.8125 C140.15761721 258.05923175 155.2497039 218.6148275 158.35302734 183.34790039 C161.45664179 139.30044923 149.07856818 99.0452893 120 65.5 C117.87842598 63.10220997 115.72849382 60.73266847 113.5625 58.375 C112.73105469 57.45976563 111.89960938 56.54453125 111.04296875 55.6015625 C100.5734595 44.59381977 87.8764506 36.49788461 74.5625 29.375 C73.67175781 28.86582031 72.78101563 28.35664062 71.86328125 27.83203125 C61.41856482 22.14461632 49.91837758 18.74818155 38.5625 15.375 C37.33345947 15.00616699 37.33345947 15.00616699 36.07958984 14.62988281 C13.36797865 8.14085104 -14.78729233 9.04474652 -37.4375 15.375 Z " fill="#5C6D7E" transform="translate(189.4375,20.625)"/>
<path d="M0 0 C0.39058594 0.8971875 0.39058594 0.8971875 0.7890625 1.8125 C2.09066101 4.16377472 3.29819196 5.3175226 5.375 7 C9.17490089 10.21530075 12.73112233 13.60935362 16.25 17.125 C16.75708496 17.62773437 17.26416992 18.13046875 17.78662109 18.6484375 C20.74362834 21.6161833 23.44603502 24.67984552 26 28 C29.48343088 26.74209441 32.07400232 25.24326489 35 23 C40.16193604 21.27935465 45.38346223 20.82966362 50.4453125 23.09375 C55.56091528 26.35386296 59.28476238 30.23687484 63 35 C61.68322266 34.61521484 61.68322266 34.61521484 60.33984375 34.22265625 C56.91909309 33.65669651 56.91909309 33.65669651 54.25390625 35.80859375 C53.36574219 36.67613281 52.47757812 37.54367187 51.5625 38.4375 C50.67691406 39.28183594 49.79132813 40.12617188 48.87890625 40.99609375 C46.78963998 43.11983837 44.84040879 45.33205307 42.90527344 47.59643555 C38.68939904 52.42906904 34.18390757 56.94193845 29.63671875 61.4609375 C28.76352493 62.33271637 27.89033112 63.20449524 26.99067688 64.10269165 C24.22530946 66.8625041 21.4564716 69.61880419 18.6875 72.375 C16.80901304 74.24846557 14.93075556 76.12216127 13.05273438 77.99609375 C8.94125571 82.09777698 4.8275941 86.19725597 0.71195984 90.29476929 C-0.52667101 91.52853151 -1.76380107 92.76380107 -3 94 C-4.31818554 92.56771184 -5.62936704 91.12897516 -6.9375 89.6875 C-7.66839844 88.88699219 -8.39929688 88.08648437 -9.15234375 87.26171875 C-12.84358743 82.74326189 -12.49569009 77.57433948 -12 72 C-10.51993878 68.19412828 -8.55882522 65.16806932 -6 62 C-7.57662638 58.19507501 -9.97691713 55.76481894 -12.8671875 52.8671875 C-13.3431839 52.38927765 -13.8191803 51.9113678 -14.30960083 51.41897583 C-15.31413209 50.41308773 -16.32117688 49.40970425 -17.33056641 48.40869141 C-18.86987445 46.8800899 -20.39822697 45.34111841 -21.92578125 43.80078125 C-22.9056094 42.82227478 -23.88605782 41.84438894 -24.8671875 40.8671875 C-25.75519043 39.98144043 -26.64319336 39.09569336 -27.55810547 38.18310547 C-29.68243356 36.28391113 -31.39098399 35.08108398 -34 34 C-33.34 34 -32.68 34 -32 34 C-31.89816406 33.40832031 -31.79632813 32.81664062 -31.69140625 32.20703125 C-30.879256 29.61457424 -29.8918639 28.55282682 -27.9375 26.6875 C-27.30714844 26.08292969 -26.67679687 25.47835938 -26.02734375 24.85546875 C-23.38684509 22.4388274 -20.68801609 20.09486111 -17.98046875 17.75390625 C-13.7298231 13.98952776 -9.7778379 10.06321324 -6.3125 5.5625 C-5.549375 4.716875 -4.78625 3.87125 -4 3 C-2.68 3 -1.36 3 0 3 C0 2.01 0 1.02 0 0 Z " fill="#5B6B7C" transform="translate(341,307)"/>
<path d="M0 0 C2.32801281 0.81720188 3.5026274 1.71950769 5.28162098 3.41347599 C5.88584983 3.98322619 6.49007868 4.5529764 7.11261749 5.13999176 C8.09076526 6.08559511 8.09076526 6.08559511 9.08867359 7.05030155 C9.78710534 7.71578794 10.48553709 8.38127432 11.20513344 9.06692696 C20.35915249 17.8305591 29.33044687 26.78245603 38.30034351 35.73365116 C39.71356077 37.14256219 41.12677832 38.55147292 42.54002315 39.9603563 C46.45661212 43.86525579 50.371162 47.77218749 54.28365391 51.68119186 C59.30714151 56.70017189 64.33716891 61.71247785 69.3727681 66.71930546 C73.30202787 70.62690519 77.22546137 74.54029339 81.14457351 78.45807034 C83.47101978 80.78347538 85.80049091 83.10569908 88.1346693 85.42334652 C90.72788688 87.99947264 93.31143481 90.58493752 95.89287281 93.17286015 C96.65392323 93.92469578 97.41497364 94.67653141 98.19908619 95.45114994 C106.12365155 103.43810591 111.01175988 110.90581248 111.47612476 122.42505741 C111.29495562 131.4721917 108.58344839 140.28352683 102.81987476 147.37036991 C100.73371756 149.02981314 99.49656735 149.27629298 96.85112476 149.36255741 C93.10112476 148.73755741 93.10112476 148.73755741 91.10112476 146.73755741 C90.24904949 141.62510577 91.17399235 139.35137653 94.10112476 135.11255741 C97.86675901 129.23602131 98.51448449 123.55168837 97.10112476 116.73755741 C93.79840398 108.92040513 88.32173809 103.41048546 82.35381031 97.5361414 C81.36700348 96.55046514 80.38108113 95.56390274 79.39597034 94.57653141 C76.73993949 91.91936068 74.07182669 89.27463878 71.40124583 86.63210273 C68.60469199 83.86068447 65.81958616 81.07780825 63.03320789 78.29616642 C57.76439095 73.03974369 52.48546835 67.79359433 47.20277005 62.55112654 C41.18515605 56.57834125 35.1790003 50.59408938 29.17374456 44.60888278 C16.82884346 32.30570542 4.46974443 20.01688887 -7.89887524 7.73755741 C-3.06876076 -0.42413188 -3.06876076 -0.42413188 0 0 Z " fill="#FD9E81" transform="translate(392.89887523651123,346.26244258880615)"/>
<path d="M0 0 C5.1259957 3.24704119 8.84707311 7.13897594 12.5625 11.90234375 C11.24572266 11.51755859 11.24572266 11.51755859 9.90234375 11.125 C6.48159309 10.55904026 6.48159309 10.55904026 3.81640625 12.7109375 C2.92824219 13.57847656 2.04007812 14.44601562 1.125 15.33984375 C0.23941406 16.18417969 -0.64617187 17.02851563 -1.55859375 17.8984375 C-3.64786002 20.02218212 -5.59709121 22.23439682 -7.53222656 24.4987793 C-11.74810096 29.33141279 -16.25359243 33.8442822 -20.80078125 38.36328125 C-21.67397507 39.23506012 -22.54716888 40.10683899 -23.44682312 41.0050354 C-26.21219054 43.76484785 -28.9810284 46.52114794 -31.75 49.27734375 C-33.62848696 51.15080932 -35.50674444 53.02450502 -37.38476562 54.8984375 C-41.49624429 59.00012073 -45.6099059 63.09959972 -49.72554016 67.19711304 C-50.96417101 68.43087526 -52.20130107 69.66614482 -53.4375 70.90234375 C-54.75568554 69.47005559 -56.06686704 68.03131891 -57.375 66.58984375 C-58.47134766 65.38908203 -58.47134766 65.38908203 -59.58984375 64.1640625 C-63.27754007 59.64994798 -62.94074651 54.47276197 -62.4375 48.90234375 C-60.79925685 44.80673587 -59.02945414 40.84612576 -55.14453125 38.54296875 C-51.95638828 36.61076089 -49.71200314 34.33294325 -47.125 31.65234375 C-44.02374213 28.4718056 -40.91690046 25.37237802 -37.5 22.52734375 C-30.78317669 16.79787956 -24.6821548 10.00654746 -19.2109375 3.0859375 C-14.73861762 -2.42072949 -6.21140892 -2.79712485 0 0 Z " fill="#374A5E" transform="translate(391.4375,330.09765625)"/>
</svg>
