<?xml version="1.0" standalone="no"?>
<!DOCTYPE svg PUBLIC "-//W3C//DTD SVG 20010904//EN"
 "http://www.w3.org/TR/2001/REC-SVG-20010904/DTD/svg10.dtd">
<svg version="1.0" xmlns="http://www.w3.org/2000/svg"
 width="512.000000pt" height="512.000000pt" viewBox="0 0 512.000000 512.000000"
 preserveAspectRatio="xMidYMid meet">
<metadata>
Created by potrace 1.16, written by Peter Selinger 2001-2019
</metadata>
<g transform="translate(0.000000,512.000000) scale(0.100000,-0.100000)"
fill="#000000" stroke="none">
<path d="M0 2560 l0 -2560 2290 0 c1471 0 2290 3 2290 10 0 5 -7 7 -15 4 -8
-4 -15 -1 -15 6 0 6 -4 8 -10 5 -13 -8 -50 12 -73 39 -10 11 -16 14 -12 6 4
-8 -11 5 -33 30 -22 25 -44 45 -48 45 -5 0 -110 102 -234 226 -164 164 -179
178 -55 50 l170 -176 -183 180 c-100 99 -182 181 -182 183 0 2 5 0 10 -3 6 -3
13 1 16 9 3 9 17 16 29 16 15 0 26 8 30 20 4 12 15 20 28 20 12 0 33 12 46 25
13 14 29 25 37 25 8 0 14 5 14 10 0 6 5 10 11 10 14 0 39 25 39 39 0 6 7 11
16 11 17 0 164 143 164 160 0 16 42 60 57 60 8 0 13 8 11 17 -1 10 5 29 15 43
9 13 17 32 17 41 0 10 14 23 30 31 17 7 30 20 30 29 0 9 7 22 15 29 8 7 12 17
9 24 -4 6 102 -97 235 -229 132 -132 241 -242 241 -245 0 -3 -105 99 -233 225
l-233 230 252 -252 c138 -139 247 -250 240 -246 -6 4 4 -8 22 -25 19 -17 31
-36 27 -42 -3 -5 -1 -10 5 -10 6 0 8 -5 5 -10 -3 -6 -1 -10 5 -10 6 0 8 -4 5
-10 -3 -5 -1 -10 5 -10 6 0 8 -5 5 -10 -3 -6 -1 -10 5 -10 7 0 9 -8 5 -20 -4
-11 -2 -20 4 -20 8 0 11 675 11 2295 l0 2295 -2560 0 -2560 0 0 -2560z m2237
2544 c-3 -3 -12 -4 -19 -1 -8 3 -5 6 6 6 11 1 17 -2 13 -5z m50 -10 c-3 -3
-12 -4 -19 -1 -8 3 -5 6 6 6 11 1 17 -2 13 -5z m-790 -10 c-3 -3 -12 -4 -19
-1 -8 3 -5 6 6 6 11 1 17 -2 13 -5z m-80 -20 c-3 -3 -12 -4 -19 -1 -8 3 -5 6
6 6 11 1 17 -2 13 -5z m-247 -84 c-8 -5 -19 -10 -25 -10 -5 0 -3 5 5 10 8 5
20 10 25 10 6 0 3 -5 -5 -10z m-81 -34 c-10 -9 -89 -46 -89 -41 0 6 72 44 84
45 5 0 7 -2 5 -4z m1707 -32 c18 -14 18 -14 -6 -3 -31 14 -36 19 -24 19 6 0
19 -7 30 -16z m-1846 -39 c0 -2 -10 -9 -22 -15 -22 -11 -22 -10 -4 4 21 17 26
19 26 11z m1950 -21 c0 -2 -9 0 -20 6 -11 6 -20 13 -20 16 0 2 9 0 20 -6 11
-6 20 -13 20 -16z m-2030 -29 c0 -2 -10 -9 -22 -15 -22 -11 -22 -10 -4 4 21
17 26 19 26 11z m2160 -61 c0 -3 -13 4 -30 16 -16 12 -30 24 -30 26 0 3 14 -4
30 -16 17 -12 30 -24 30 -26z m-2210 32 c0 -2 -8 -10 -17 -17 -16 -13 -17 -12
-4 4 13 16 21 21 21 13z m1385 -24 c338 -86 579 -215 786 -422 296 -295 448
-606 483 -987 6 -62 5 -63 -19 -63 -14 0 -25 5 -25 10 0 6 -73 10 -200 10
-118 0 -200 -4 -200 -9 0 -6 -21 -13 -47 -16 -27 -3 -56 -10 -65 -16 -10 -5
-36 -9 -58 -9 -29 0 -40 -4 -40 -15 0 -10 -10 -15 -30 -15 -16 0 -30 -4 -30
-9 0 -5 -29 -12 -65 -16 -36 -3 -65 -11 -65 -16 0 -5 -11 -9 -25 -9 -16 0 -25
-6 -25 -15 0 -8 -9 -15 -20 -15 -11 0 -20 -4 -20 -10 0 -5 -11 -10 -25 -10
-14 0 -25 -5 -25 -10 0 -6 -12 -16 -27 -22 -16 -7 -39 -23 -52 -35 -13 -13
-30 -23 -37 -23 -8 0 -14 -4 -14 -10 0 -5 -5 -10 -11 -10 -14 0 -39 -25 -39
-39 0 -6 -8 -11 -17 -11 -18 0 -163 -143 -163 -160 0 -16 -42 -60 -57 -60 -7
0 -13 -7 -13 -15 0 -18 -18 -51 -42 -79 -10 -11 -18 -26 -18 -33 0 -7 -7 -13
-15 -13 -8 0 -15 -9 -15 -19 0 -11 -4 -23 -10 -26 -5 -3 -10 -15 -10 -26 0
-10 -4 -19 -9 -19 -6 0 -13 -20 -16 -45 -4 -24 -13 -50 -21 -56 -8 -6 -14 -22
-14 -35 0 -12 -5 -26 -10 -29 -6 -3 -10 -17 -10 -30 0 -13 -5 -27 -10 -30 -6
-3 -10 -26 -10 -50 0 -24 -4 -47 -10 -50 -15 -9 -12 -107 4 -128 12 -15 35
-17 228 -17 l216 0 26 34 c15 20 26 48 26 65 0 17 4 31 9 31 5 0 11 18 15 40
3 23 13 43 21 46 8 4 15 16 15 29 0 13 7 25 15 29 8 3 15 12 15 21 0 8 4 15 9
15 5 0 12 12 16 28 7 28 37 62 55 62 5 0 10 6 10 13 0 8 21 34 46 58 25 24 60
59 79 77 18 17 40 32 49 32 9 0 16 7 16 15 0 8 7 15 15 15 8 0 15 6 15 14 0 9
17 16 45 20 25 4 45 11 45 17 0 5 11 9 25 9 16 0 25 6 25 15 0 8 8 15 19 15
10 0 23 6 29 13 7 8 43 13 104 15 51 1 94 6 96 12 5 13 202 13 202 0 0 -5 20
-10 45 -10 25 0 45 -2 45 -5 0 -3 -16 -50 -36 -103 -172 -460 -530 -807 -993
-963 l-116 -39 -207 0 c-177 0 -208 -2 -208 -15 0 -25 -49 -29 -170 -12 -231
33 -481 129 -672 258 -122 83 -333 294 -415 414 -138 205 -237 461 -274 710
-16 112 -14 324 5 420 50 255 160 512 298 696 86 116 129 161 243 257 233 196
498 322 790 376 119 23 432 15 540 -12z m856 -29 c13 -16 12 -17 -3 -4 -17 13
-22 21 -14 21 2 0 10 -8 17 -17z m-2311 4 c0 -2 -10 -12 -22 -23 l-23 -19 19
23 c18 21 26 27 26 19z m2360 -42 c13 -14 21 -25 18 -25 -2 0 -15 11 -28 25
-13 14 -21 25 -18 25 2 0 15 -11 28 -25z m-2410 2 c0 -2 -10 -12 -22 -23 l-23
-19 19 23 c18 21 26 27 26 19z m2505 -87 c27 -27 47 -50 44 -50 -3 0 -27 23
-54 50 -27 28 -47 50 -44 50 3 0 27 -22 54 -50z m-2565 37 c0 -1 -44 -45 -97
-97 l-98 -95 95 98 c88 90 100 102 100 94z m2660 -122 c13 -14 21 -25 18 -25
-2 0 -15 11 -28 25 -13 14 -21 25 -18 25 2 0 15 -11 28 -25z m60 -70 c13 -14
21 -25 18 -25 -2 0 -15 11 -28 25 -13 14 -21 25 -18 25 2 0 15 -11 28 -25z
m-2910 -8 c0 -2 -12 -14 -27 -28 l-28 -24 24 28 c23 25 31 32 31 24z m2955
-47 c10 -11 16 -20 13 -20 -3 0 -13 9 -23 20 -10 11 -16 20 -13 20 3 0 13 -9
23 -20z m-3005 -14 c0 -2 -8 -10 -17 -17 -16 -13 -17 -12 -4 4 13 16 21 21 21
13z m-30 -40 c0 -2 -8 -10 -17 -17 -16 -13 -17 -12 -4 4 13 16 21 21 21 13z
m3091 -23 c13 -16 12 -17 -3 -4 -17 13 -22 21 -14 21 2 0 10 -8 17 -17z
m-3157 -68 c-9 -14 -18 -25 -21 -25 -5 0 5 18 20 38 17 22 18 13 1 -13z m-54
-85 c-6 -11 -13 -20 -16 -20 -2 0 0 9 6 20 6 11 13 20 16 20 2 0 0 -9 -6 -20z
m3320 -10 c6 -11 8 -20 6 -20 -3 0 -10 9 -16 20 -6 11 -8 20 -6 20 3 0 10 -9
16 -20z m-3367 -75 c-3 -9 -8 -14 -10 -11 -3 3 -2 9 2 15 9 16 15 13 8 -4z
m3425 -40 c-3 -3 -9 2 -12 12 -6 14 -5 15 5 6 7 -7 10 -15 7 -18z m149 -447
c-3 -8 -6 -5 -6 6 -1 11 2 17 5 13 3 -3 4 -12 1 -19z m-3750 -20 c-3 -8 -6 -5
-6 6 -1 11 2 17 5 13 3 -3 4 -12 1 -19z m3760 -40 c-3 -8 -6 -5 -6 6 -1 11 2
17 5 13 3 -3 4 -12 1 -19z m-3770 -20 c-3 -7 -5 -2 -5 12 0 14 2 19 5 13 2 -7
2 -19 0 -25z m3780 -50 c-3 -7 -5 -2 -5 12 0 14 2 19 5 13 2 -7 2 -19 0 -25z
m10 -95 c-3 -10 -5 -2 -5 17 0 19 2 27 5 18 2 -10 2 -26 0 -35z m10 -160 c-3
-10 -5 -2 -5 17 0 19 2 27 5 18 2 -10 2 -26 0 -35z m-3780 -425 c-3 -8 -6 -5
-6 6 -1 11 2 17 5 13 3 -3 4 -12 1 -19z m167 -455 c14 -29 24 -53 21 -53 -5 0
-55 95 -55 106 0 12 6 2 34 -53z m3357 -86 c-10 -9 -11 -8 -5 6 3 10 9 15 12
12 3 -3 0 -11 -7 -18z m-3301 -17 c6 -11 8 -20 6 -20 -3 0 -10 9 -16 20 -6 11
-8 20 -6 20 3 0 10 -9 16 -20z m3260 -49 c-5 -11 -15 -23 -21 -27 -6 -3 -3 5
6 20 20 30 30 35 15 7z m-3169 -88 c13 -16 12 -17 -3 -4 -10 7 -18 15 -18 17
0 8 8 3 21 -13z m3119 13 c0 -2 -8 -10 -17 -17 -16 -13 -17 -12 -4 4 13 16 21
21 21 13z m-3089 -53 c13 -16 12 -17 -3 -4 -10 7 -18 15 -18 17 0 8 8 3 21
-13z m34 -43 c10 -11 16 -20 13 -20 -3 0 -13 9 -23 20 -10 11 -16 20 -13 20 3
0 13 -9 23 -20z m45 -55 c13 -14 21 -25 18 -25 -2 0 -15 11 -28 25 -13 14 -21
25 -18 25 2 0 15 -11 28 -25z m150 -150 c19 -19 32 -35 29 -35 -3 0 -20 16
-39 35 -19 19 -32 35 -29 35 3 0 20 -16 39 -35z m75 -65 c10 -11 16 -20 13
-20 -3 0 -13 9 -23 20 -10 11 -16 20 -13 20 3 0 13 -9 23 -20z m3423 -135 c1
-14 -2 -25 -7 -25 -5 0 -12 -20 -15 -45 -4 -24 -11 -47 -17 -50 -5 -4 -9 -17
-9 -31 0 -15 -6 -24 -15 -24 -8 0 -15 -9 -15 -20 0 -13 -5 -18 -14 -14 -11 4
-17 -5 -22 -30 -3 -20 -11 -36 -16 -36 -11 0 -68 -55 -68 -65 0 -10 -72 -75
-82 -75 -4 0 -8 -7 -8 -16 0 -9 -9 -18 -20 -21 -11 -3 -20 -9 -20 -14 0 -5 -7
-9 -15 -9 -8 0 -27 -13 -43 -29 -16 -17 -43 -32 -65 -36 -20 -4 -37 -11 -37
-16 0 -5 -9 -9 -20 -9 -10 0 -23 -6 -27 -14 -4 -8 -27 -17 -49 -19 -41 -5 -43
-3 -120 76 -44 45 -62 66 -41 47 23 -21 37 -29 37 -19 0 8 133 147 295 309
232 232 297 292 307 282 7 -7 16 -12 22 -12 5 0 -6 17 -24 38 -19 20 -3 7 35
-31 46 -44 71 -76 73 -92z m-3367 88 c13 -16 12 -17 -3 -4 -17 13 -22 21 -14
21 2 0 10 -8 17 -17z m40 -30 c13 -16 12 -17 -3 -4 -17 13 -22 21 -14 21 2 0
10 -8 17 -17z m2209 -27 c0 -2 -8 -10 -17 -17 -16 -13 -17 -12 -4 4 13 16 21
21 21 13z m-2075 -61 l20 -16 -20 10 c-11 5 -29 17 -40 26 l-20 16 20 -10 c11
-5 29 -17 40 -26z m612 -241 c-3 -3 -12 -4 -19 -1 -8 3 -5 6 6 6 11 1 17 -2
13 -5z m50 -10 c-3 -3 -12 -4 -19 -1 -8 3 -5 6 6 6 11 1 17 -2 13 -5z m66 -11
c-7 -2 -19 -2 -25 0 -7 3 -2 5 12 5 14 0 19 -2 13 -5z m105 -10 c-10 -2 -26
-2 -35 0 -10 3 -2 5 17 5 19 0 27 -2 18 -5z m2652 -1198 c13 -14 21 -25 18
-25 -2 0 -15 11 -28 25 -13 14 -21 25 -18 25 2 0 15 -11 28 -25z"/>
<path d="M4060 1665 c19 -19 36 -35 39 -35 3 0 -10 16 -29 35 -19 19 -36 35
-39 35 -3 0 10 -16 29 -35z"/>
<path d="M3440 1068 c41 -45 50 -53 50 -45 0 2 -21 23 -47 47 l-48 45 45 -47z"/>
<path d="M5111 334 c0 -11 3 -14 6 -6 3 7 2 16 -1 19 -3 4 -6 -2 -5 -13z"/>
<path d="M5104 285 c3 -8 1 -15 -4 -15 -5 0 -7 -7 -4 -15 4 -8 1 -15 -7 -15
-7 0 -9 -3 -6 -7 4 -3 -1 -12 -11 -20 -9 -8 -11 -12 -4 -8 22 11 13 -6 -20
-38 -18 -17 -26 -27 -18 -22 8 4 0 -8 -19 -28 -19 -20 -38 -34 -42 -31 -4 2
-11 -1 -15 -7 -5 -8 -3 -9 7 -4 10 5 11 5 4 -3 -5 -6 -16 -12 -24 -14 -8 -2
-23 -11 -33 -21 -11 -10 -26 -16 -34 -13 -8 3 -14 1 -14 -5 0 -6 -7 -9 -15 -5
-8 3 -15 1 -15 -4 0 -6 58 -10 145 -10 l145 0 0 150 c0 103 -3 150 -11 150 -6
0 -9 -7 -5 -15z"/>
<path d="M4618 3 c7 -3 16 -2 19 1 4 3 -2 6 -13 5 -11 0 -14 -3 -6 -6z"/>
</g>
</svg>
