<?xml version="1.0" encoding="UTF-8"?>
<svg version="1.1" xmlns="http://www.w3.org/2000/svg" width="512" height="512">
<path d="M0 0 C3.55007248 0.00849648 7.09852337 -0.02032383 10.6484375 -0.05200195 C24.49859345 -0.09472048 37.40259441 0.95932169 50.8203125 4.44604492 C51.66461823 4.66535172 52.50892395 4.88465851 53.3788147 5.11061096 C84.59247557 13.34760535 111.68231181 28.54284372 134.9921875 50.77416992 C137.29440436 52.94919248 139.63162889 54.99231044 142.0703125 57.00854492 C169.06952432 80.50576693 185.36077288 118.63369551 192.55078125 152.93041992 C193.9420144 159.43970471 196.19331989 163.92619113 199.91796875 169.42260742 C213.66649844 191.27345338 214.01288567 215.96708839 213.8828125 240.94604492 C213.87777939 242.655679 213.87321974 244.36531455 213.86914062 246.07495117 C213.85829702 250.19868627 213.84113601 254.32234864 213.8203125 258.44604492 C214.42069336 258.55924072 215.02107422 258.67243652 215.63964844 258.7890625 C224.32728594 260.54819492 229.70245404 264.24993915 234.8125 271.53979492 C237.61835291 276.84698958 237.96441475 280.66576371 236.94897461 286.55615234 C236.72327744 287.9916867 236.50213329 289.42794219 236.28486633 290.86477661 C236.16940271 291.62495213 236.05393909 292.38512764 235.93497658 293.16833878 C232.39586347 318.17224405 228.85496794 349.03842581 244.03724575 370.81206608 C260.11667481 392.08727954 281.10350416 410.11607603 301.61894226 426.99801636 C312.49338016 435.95689407 321.24770718 444.72822897 325.8203125 458.44604492 C327.06936336 473.68604645 327.09946257 487.11624599 317.0402832 499.27783203 C311.1726942 505.9718707 303.56317303 511.96417465 294.34350586 512.62304688 C291.14817945 512.68979901 287.95372253 512.7310098 284.7578125 512.75854492 C283.66275391 512.78754883 282.56769531 512.81655273 281.43945312 512.84643555 C267.55108696 512.95396906 259.00026587 507.41867441 249.25 497.94995117 C247.55593281 496.24811304 245.869614 494.5385243 244.19140625 492.82104492 C241.51709869 490.14233159 238.71725569 487.68662011 235.81640625 485.25854492 C233.8203125 483.44604492 233.8203125 483.44604492 231.60546875 480.94604492 C230.85136719 480.10041992 230.09726562 479.25479492 229.3203125 478.38354492 C228.65 477.58819336 227.9796875 476.7928418 227.2890625 475.97338867 C226.06703125 475.21735352 226.06703125 475.21735352 224.8203125 474.44604492 C222.89921405 474.92115164 220.97939698 475.40309788 219.07156634 475.9289571 C215.31404389 476.79201797 211.60310913 476.73169888 207.76333618 476.72019958 C206.88559268 476.72543626 206.00784919 476.73067294 205.1035074 476.73606831 C202.1804489 476.75099619 199.25756656 476.75177186 196.33447266 476.75244141 C194.23131518 476.76006761 192.12816048 476.7684959 190.02500916 476.77766418 C184.3245746 476.79956737 178.62419367 476.80840219 172.92372179 476.81349063 C169.35965753 476.81713838 165.79560723 476.82338055 162.23154831 476.83049202 C149.79042699 476.85496956 137.34934729 476.86803528 124.90820312 476.87158203 C113.32243259 476.87521854 101.73692675 476.90512672 90.15123713 476.94698662 C80.19345559 476.98170002 70.23576176 476.99713064 60.27792013 476.99782807 C54.33524067 476.99862035 48.39283117 477.00733755 42.45021439 477.03582573 C36.86044044 477.06202489 31.27116 477.0642009 25.68135262 477.04817009 C23.63436239 477.04635725 21.58734364 477.05303133 19.54041481 477.0689888 C-1.94055155 477.22619305 -1.94055155 477.22619305 -10.29591942 469.48549557 C-16.46271795 463.21480613 -18.56421662 456.32645847 -18.52026367 447.65307617 C-18.52070175 446.92039017 -18.52113983 446.18770416 -18.52159119 445.43281555 C-18.51952198 443.04110893 -18.49628118 440.65012716 -18.47265625 438.25854492 C-18.46705361 436.58846418 -18.46278667 434.91837847 -18.45979309 433.24829102 C-18.44839682 428.8752455 -18.41897526 424.50250394 -18.38568115 420.12957764 C-18.3548671 415.65828563 -18.34126364 411.186944 -18.32617188 406.71557617 C-18.29409997 397.95892704 -18.24296764 389.2025239 -18.1796875 380.44604492 C-19.0616127 380.38441666 -19.9435379 380.32278839 -20.85218811 380.2592926 C-22.0147966 380.17469284 -23.17740509 380.09009308 -24.37524414 380.00292969 C-25.52529434 379.92067642 -26.67534454 379.83842316 -27.86024475 379.75367737 C-32.23793295 379.34797104 -36.37232163 378.49886262 -40.6171875 377.38354492 C-41.45789795 377.16512939 -42.2986084 376.94671387 -43.16479492 376.72167969 C-74.69476573 368.22937496 -101.79280139 352.96771611 -126.1796875 331.44604492 C-127.07300781 330.68678711 -127.96632812 329.9275293 -128.88671875 329.14526367 C-135.08913058 323.7812731 -140.18228481 317.93375895 -145.1796875 311.44604492 C-145.87215576 310.56601807 -145.87215576 310.56601807 -146.57861328 309.66821289 C-172.92694918 276.15688499 -187.24514707 236.44166624 -186.77661133 193.6628418 C-186.74206303 190.18350978 -186.7561094 186.7067026 -186.77539062 183.22729492 C-186.7668391 169.51258938 -185.56466548 156.741017 -182.1796875 143.44604492 C-181.9230835 142.40222656 -181.66647949 141.3584082 -181.40209961 140.28295898 C-180.77958192 137.89846793 -180.10046862 135.54851339 -179.3671875 133.19604492 C-179.11638428 132.37797363 -178.86558105 131.55990234 -178.60717773 130.71704102 C-176.27085006 123.32835989 -173.36896054 116.26839946 -170.04443359 109.27368164 C-169.21956059 107.53031652 -168.42725805 105.77165129 -167.63671875 104.01245117 C-147.65542129 61.33634673 -107.7349654 27.47303382 -63.98901367 11.19482422 C-55.83744243 8.24711449 -47.62044058 5.44657512 -39.1796875 3.44604492 C-38.14634277 3.18637939 -37.11299805 2.92671387 -36.04833984 2.65917969 C-24.08376811 0.00554953 -12.21691979 -0.04447093 0 0 Z " fill="#090606" transform="translate(186.1796875,-0.446044921875)"/>
<path d="M0 0 C3.55007248 0.00849648 7.09852337 -0.02032383 10.6484375 -0.05200195 C24.49859345 -0.09472048 37.40259441 0.95932169 50.8203125 4.44604492 C51.66461823 4.66535172 52.50892395 4.88465851 53.3788147 5.11061096 C84.59247557 13.34760535 111.68231181 28.54284372 134.9921875 50.77416992 C137.29440436 52.94919248 139.63162889 54.99231044 142.0703125 57.00854492 C168.23270064 79.77748523 189.43067155 121.53263294 192.6328125 156.13354492 C192.71347113 157.57014044 192.78475608 159.00762626 192.8203125 160.44604492 C189.71013542 157.98683513 187.10779881 155.80745628 184.6328125 152.69604492 C181.46019765 148.70967497 177.43734188 145.72433748 173.47265625 142.56323242 C171.41507449 140.92080339 169.42251942 139.24437853 167.4453125 137.50854492 C164.94086494 135.54076469 162.83489504 134.42135104 159.8203125 133.44604492 C160.4803125 133.11604492 161.1403125 132.78604492 161.8203125 132.44604492 C162.4803125 132.77604492 163.1403125 133.10604492 163.8203125 133.44604492 C151.7812066 104.99609076 136.59418119 79.58640374 111.8203125 60.44604492 C110.85867188 59.65713867 109.89703125 58.86823242 108.90625 58.05541992 C71.62742362 28.04360527 26.41973607 18.80410194 -20.44921875 22.91870117 C-49.68503353 26.19585658 -77.56120671 38.8949523 -100.1796875 57.44604492 C-100.73575684 57.89915039 -101.29182617 58.35225586 -101.86474609 58.8190918 C-135.27121965 86.15776112 -159.37363627 125.60307061 -163.97695923 169.08798218 C-164.28690191 172.69312463 -164.36062043 176.28219178 -164.3828125 179.89916992 C-164.38991745 180.67319153 -164.3970224 181.44721313 -164.40434265 182.24468994 C-164.74911771 230.85888642 -152.02185216 273.43806562 -117.67749023 308.97924805 C-95.98850942 330.21924751 -68.82368706 347.25327235 -39.1796875 354.44604492 C-38.03371094 354.7322168 -36.88773438 355.01838867 -35.70703125 355.31323242 C-29.85862102 356.72329689 -24.14481951 357.72212857 -18.1796875 358.44604492 C-18.19016113 357.47779785 -18.20063477 356.50955078 -18.21142578 355.51196289 C-18.24778121 351.90018448 -18.27064423 348.28842208 -18.28955078 344.67651367 C-18.29957307 343.11691564 -18.31319455 341.55733622 -18.33056641 339.99780273 C-18.3549816 337.74873238 -18.3662084 335.4999117 -18.375 333.25073242 C-18.38532257 332.55986542 -18.39564514 331.86899841 -18.40628052 331.15719604 C-18.40725629 326.89250197 -18.03895374 323.31346539 -16.1796875 319.44604492 C-14.8596875 319.11604492 -13.5396875 318.78604492 -12.1796875 318.44604492 C-12.1796875 314.15604492 -12.1796875 309.86604492 -12.1796875 305.44604492 C-10.8596875 304.78604492 -9.5396875 304.12604492 -8.1796875 303.44604492 C-6.95771717 301.00210426 -7.06939853 299.41333433 -7.07421875 296.68432617 C-7.05939453 295.72977539 -7.04457031 294.77522461 -7.02929688 293.79174805 C-7.004798 291.78928697 -6.99920822 289.78649425 -7.01367188 287.78393555 C-6.87842954 281.67344089 -6.09109713 278.19081958 -1.7565918 273.77490234 C2.52346919 270.16809449 5.82173792 270.15594081 11.17558289 270.17189026 C12.03821473 270.16665358 12.90084658 270.1614169 13.78961879 270.15602154 C16.6914166 270.14097333 19.59303883 270.14031532 22.49487305 270.13964844 C24.57098185 270.13203005 26.64708781 270.12360311 28.72319031 270.11442566 C34.37213539 270.09243873 40.02102633 270.08367581 45.67000937 270.07859921 C49.19868665 270.07495978 52.72734965 270.0687218 56.2560215 270.06159782 C68.56513723 270.03708618 80.87421073 270.02404828 93.18334961 270.02050781 C104.65828965 270.01687397 116.13296198 269.98699366 127.60782021 269.94510323 C137.45676583 269.91040859 147.30562273 269.89495949 157.15462905 269.89426178 C163.03807526 269.89346851 168.92124909 269.88470724 174.80463219 269.85626411 C180.34098481 269.83009882 185.87683898 269.82787002 191.41322517 269.84391975 C193.4433132 269.84573561 195.47342978 269.8390313 197.50345612 269.82310104 C200.27960089 269.80264736 203.0540007 269.81318812 205.8301239 269.83131409 C206.62965585 269.81811412 207.4291878 269.80491415 208.25294799 269.79131418 C214.14046981 269.87884677 218.36491573 271.53342466 222.8203125 275.44604492 C224.89247791 278.89995739 225.07533837 281.92460563 225.0987854 285.9066925 C225.11553062 287.53252007 225.11553062 287.53252007 225.13261414 289.19119263 C225.13477432 290.37011078 225.13693451 291.54902893 225.13916016 292.76367188 C225.14920578 294.01285904 225.1592514 295.2620462 225.16960144 296.54908752 C225.19516607 299.96607403 225.21203777 303.38289502 225.22502947 306.79993844 C225.2406791 310.37409436 225.26746346 313.94816654 225.2930603 317.52226257 C225.3398157 324.28651427 225.37657544 331.05078177 225.40973318 337.81511229 C225.44797749 345.51767277 225.49738158 353.22014906 225.54771733 360.92263854 C225.65098899 376.76371312 225.74026484 392.60483493 225.8203125 408.44604492 C227.1196875 408.30166992 228.4190625 408.15729492 229.7578125 408.00854492 C230.48871094 407.92733398 231.21960938 407.84612305 231.97265625 407.76245117 C233.83171479 407.62717878 233.83171479 407.62717878 234.8203125 406.44604492 C234.94241174 405.0348679 234.99802122 403.61784034 235.02563477 402.20166016 C235.04557999 401.30080185 235.06552521 400.39994354 235.08607483 399.4717865 C235.11114357 398.00304832 235.11114357 398.00304832 235.13671875 396.50463867 C235.1678904 395.00852806 235.1678904 395.00852806 235.19969177 393.48219299 C235.26529887 390.2827165 235.32412384 387.0831551 235.3828125 383.88354492 C235.42598712 381.72012453 235.46960105 379.55671286 235.51367188 377.39331055 C235.62099153 372.07764619 235.72273677 366.76189658 235.8203125 361.44604492 C238.72849353 362.76250474 240.80577999 364.17951316 243.06355286 366.42858887 C243.68158279 367.039534 244.29961273 367.65047913 244.93637085 368.27993774 C245.60294708 368.94899139 246.26952332 369.61804504 246.95629883 370.30737305 C248.02295525 371.36636307 248.02295525 371.36636307 249.11116028 372.44674683 C251.46342621 374.78510096 253.80817542 377.13082499 256.15234375 379.47729492 C257.78873578 381.10979891 259.42535099 382.74207922 261.06217957 384.37414551 C264.49613027 387.80062911 267.92617255 391.2309697 271.35375977 394.66381836 C275.72974881 399.04558114 280.11694692 403.41592192 284.5074358 407.78314972 C287.89376588 411.15468298 291.2730742 414.53318755 294.65045738 417.91368103 C296.26391549 419.5266282 297.87971689 421.13723507 299.49796486 422.74537659 C326.00011806 449.10236385 326.00011806 449.10236385 326.1953125 469.88354492 C326.20036501 483.57381728 323.5712316 492.38785394 314.19995117 502.41699219 C305.50278039 511.09663719 296.52884505 512.65712879 284.7578125 512.75854492 C283.66275391 512.78754883 282.56769531 512.81655273 281.43945312 512.84643555 C267.55108696 512.95396906 259.00026587 507.41867441 249.25 497.94995117 C247.55593281 496.24811304 245.869614 494.5385243 244.19140625 492.82104492 C241.51709869 490.14233159 238.71725569 487.68662011 235.81640625 485.25854492 C233.8203125 483.44604492 233.8203125 483.44604492 231.60546875 480.94604492 C230.85136719 480.10041992 230.09726562 479.25479492 229.3203125 478.38354492 C228.65 477.58819336 227.9796875 476.7928418 227.2890625 475.97338867 C226.06703125 475.21735352 226.06703125 475.21735352 224.8203125 474.44604492 C222.89921405 474.92115164 220.97939698 475.40309788 219.07156634 475.9289571 C215.31404389 476.79201797 211.60310913 476.73169888 207.76333618 476.72019958 C206.88559268 476.72543626 206.00784919 476.73067294 205.1035074 476.73606831 C202.1804489 476.75099619 199.25756656 476.75177186 196.33447266 476.75244141 C194.23131518 476.76006761 192.12816048 476.7684959 190.02500916 476.77766418 C184.3245746 476.79956737 178.62419367 476.80840219 172.92372179 476.81349063 C169.35965753 476.81713838 165.79560723 476.82338055 162.23154831 476.83049202 C149.79042699 476.85496956 137.34934729 476.86803528 124.90820312 476.87158203 C113.32243259 476.87521854 101.73692675 476.90512672 90.15123713 476.94698662 C80.19345559 476.98170002 70.23576176 476.99713064 60.27792013 476.99782807 C54.33524067 476.99862035 48.39283117 477.00733755 42.45021439 477.03582573 C36.86044044 477.06202489 31.27116 477.0642009 25.68135262 477.04817009 C23.63436239 477.04635725 21.58734364 477.05303133 19.54041481 477.0689888 C-1.94055155 477.22619305 -1.94055155 477.22619305 -10.29591942 469.48549557 C-16.46271795 463.21480613 -18.56421662 456.32645847 -18.52026367 447.65307617 C-18.52070175 446.92039017 -18.52113983 446.18770416 -18.52159119 445.43281555 C-18.51952198 443.04110893 -18.49628118 440.65012716 -18.47265625 438.25854492 C-18.46705361 436.58846418 -18.46278667 434.91837847 -18.45979309 433.24829102 C-18.44839682 428.8752455 -18.41897526 424.50250394 -18.38568115 420.12957764 C-18.3548671 415.65828563 -18.34126364 411.186944 -18.32617188 406.71557617 C-18.29409997 397.95892704 -18.24296764 389.2025239 -18.1796875 380.44604492 C-19.0616127 380.38441666 -19.9435379 380.32278839 -20.85218811 380.2592926 C-22.0147966 380.17469284 -23.17740509 380.09009308 -24.37524414 380.00292969 C-25.52529434 379.92067642 -26.67534454 379.83842316 -27.86024475 379.75367737 C-32.23793295 379.34797104 -36.37232163 378.49886262 -40.6171875 377.38354492 C-41.45789795 377.16512939 -42.2986084 376.94671387 -43.16479492 376.72167969 C-74.69476573 368.22937496 -101.79280139 352.96771611 -126.1796875 331.44604492 C-127.07300781 330.68678711 -127.96632812 329.9275293 -128.88671875 329.14526367 C-135.08913058 323.7812731 -140.18228481 317.93375895 -145.1796875 311.44604492 C-145.87215576 310.56601807 -145.87215576 310.56601807 -146.57861328 309.66821289 C-172.92694918 276.15688499 -187.24514707 236.44166624 -186.77661133 193.6628418 C-186.74206303 190.18350978 -186.7561094 186.7067026 -186.77539062 183.22729492 C-186.7668391 169.51258938 -185.56466548 156.741017 -182.1796875 143.44604492 C-181.9230835 142.40222656 -181.66647949 141.3584082 -181.40209961 140.28295898 C-180.77958192 137.89846793 -180.10046862 135.54851339 -179.3671875 133.19604492 C-179.11638428 132.37797363 -178.86558105 131.55990234 -178.60717773 130.71704102 C-176.27085006 123.32835989 -173.36896054 116.26839946 -170.04443359 109.27368164 C-169.21956059 107.53031652 -168.42725805 105.77165129 -167.63671875 104.01245117 C-147.65542129 61.33634673 -107.7349654 27.47303382 -63.98901367 11.19482422 C-55.83744243 8.24711449 -47.62044058 5.44657512 -39.1796875 3.44604492 C-38.14634277 3.18637939 -37.11299805 2.92671387 -36.04833984 2.65917969 C-24.08376811 0.00554953 -12.21691979 -0.04447093 0 0 Z " fill="#FD2625" transform="translate(186.1796875,-0.446044921875)"/>
<path d="M0 0 C0.8109568 -0.00297112 1.6219136 -0.00594224 2.45744485 -0.0090034 C5.18422062 -0.01769893 7.91095254 -0.01919937 10.63774109 -0.02069092 C12.58901565 -0.02531848 14.5402893 -0.03034305 16.49156189 -0.03573608 C21.79946872 -0.04886783 27.1073629 -0.05530652 32.41528344 -0.05974674 C35.7301979 -0.06267614 39.04510888 -0.06678069 42.36002159 -0.07125092 C52.72799231 -0.08492771 63.09595512 -0.09459355 73.46393424 -0.09845281 C85.43903127 -0.10293455 97.4140142 -0.12048715 109.38907653 -0.1494534 C118.64096127 -0.1710571 127.89281389 -0.18115638 137.14472359 -0.18249393 C142.67256978 -0.18354287 148.20030876 -0.18946969 153.72812843 -0.20731354 C158.92785888 -0.22377156 164.12740125 -0.22596073 169.32714844 -0.21717453 C171.23551626 -0.21640295 173.1438941 -0.22076279 175.05223656 -0.23063278 C177.65793323 -0.24331904 180.26296045 -0.23749365 182.86865234 -0.22705078 C183.62342765 -0.23510719 184.37820295 -0.24316359 185.15585023 -0.25146413 C189.8829284 -0.20717141 193.10763119 0.64667608 197.12480164 3.14044189 C200.51331046 7.14115468 200.52624995 11.03661661 200.41777039 16.06622314 C200.41352554 16.81381393 200.4092807 17.56140472 200.40490723 18.33164978 C200.3881922 20.70578922 200.3505551 23.07906157 200.31230164 25.45294189 C200.29724544 27.06816396 200.28355867 28.68339941 200.27128601 30.29864502 C200.24087104 34.24650872 200.18214113 38.19251148 200.12480164 42.14044189 C191.21480164 42.80044189 182.30480164 43.46044189 173.12480164 44.14044189 C173.12480164 44.80044189 173.12480164 45.46044189 173.12480164 46.14044189 C171.4967157 46.53876221 171.4967157 46.53876221 169.83573914 46.94512939 C168.39039516 47.30177271 166.94508442 47.6585507 165.49980164 48.01544189 C164.43052429 48.27647705 164.43052429 48.27647705 163.33964539 48.54278564 C159.19683948 49.56898527 155.15753486 50.72834919 151.12480164 52.14044189 C151.12480164 52.80044189 151.12480164 53.46044189 151.12480164 54.14044189 C150.19667664 54.49106689 149.26855164 54.84169189 148.31230164 55.20294189 C133.54348489 61.65505021 121.49083379 73.22177686 112.12480164 86.14044189 C111.68394226 86.73856689 111.24308289 87.33669189 110.78886414 87.95294189 C108.92673037 90.59426638 107.61965829 92.92387364 107.12480164 96.14044189 C106.46480164 96.14044189 105.80480164 96.14044189 105.12480164 96.14044189 C104.75355164 97.28512939 104.75355164 97.28512939 104.37480164 98.45294189 C103.38414882 101.3753677 102.33333306 104.25244673 101.24980164 107.14044189 C96.63317985 119.77995697 94.01512934 131.46616268 93.80839539 144.88262939 C93.77722374 146.5678923 93.77722374 146.5678923 93.74542236 148.28720093 C93.68022939 151.86322121 93.6211828 155.43931266 93.56230164 159.01544189 C93.51908764 161.44513665 93.47547244 163.8748243 93.43144226 166.30450439 C93.32457909 172.24974246 93.22275736 178.19505075 93.12480164 184.14044189 C92.43292755 184.26723328 91.74105347 184.39402466 91.0282135 184.5246582 C89.67102707 184.78258148 89.67102707 184.78258148 88.28642273 185.04571533 C86.9392366 185.2977774 86.9392366 185.2977774 85.56483459 185.55493164 C79.89827556 186.91467902 75.96281507 191.71404662 72.68730164 196.32794189 C70.32080849 200.58762955 70.00136701 203.93473231 70.02714539 208.78106689 C70.03036804 209.85098877 70.0335907 210.92091064 70.03691101 212.02325439 C70.04528992 213.13442627 70.05366882 214.24559814 70.06230164 215.39044189 C70.06681335 216.51708252 70.07132507 217.64372314 70.07597351 218.80450439 C70.08774766 221.58320407 70.10419324 224.36179599 70.12480164 227.14044189 C72.10480164 228.13044189 72.10480164 228.13044189 74.12480164 229.14044189 C74.25976415 231.24285793 74.35677471 233.34773799 74.43730164 235.45294189 C74.49530945 236.62469971 74.55331726 237.79645752 74.61308289 239.00372314 C74.45195007 240.03884033 74.29081726 241.07395752 74.12480164 242.14044189 C71.66777039 243.87091064 71.66777039 243.87091064 69.12480164 245.14044189 C68.79480164 246.13044189 68.46480164 247.12044189 68.12480164 248.14044189 C62.55172243 246.6501723 58.33363797 243.90827271 53.62480164 240.70294189 C52.83307556 240.16798096 52.04134949 239.63302002 51.22563171 239.08184814 C39.51329438 231.08260356 28.75703829 222.26215139 18.51005554 212.46270752 C17.31188675 211.31902014 16.10038796 210.18932833 14.88652039 209.06231689 C-0.37747769 194.50186983 -14.98146884 171.91732774 -16.01221275 150.26182652 C-16.01778505 149.19757419 -16.02335735 148.13332186 -16.02909851 147.03681946 C-16.03769897 145.8101506 -16.04629944 144.58348175 -16.05516052 143.31964111 C-16.05959499 141.96832318 -16.06389341 140.61700479 -16.06806946 139.26568604 C-16.07597682 137.83627628 -16.08424616 136.4068685 -16.09284973 134.97746277 C-16.11898401 130.29352707 -16.13436306 125.60958278 -16.14863586 120.92559814 C-16.15399801 119.31076998 -16.15937552 117.69594187 -16.16476822 116.08111382 C-16.18637923 109.36493357 -16.20511695 102.64875565 -16.21639061 95.93254948 C-16.23264129 86.31619228 -16.26586621 76.70023829 -16.32279146 67.08403307 C-16.36148797 60.3161662 -16.3810226 53.54840724 -16.38631117 46.78043264 C-16.38996341 42.74030503 -16.40197168 38.70060834 -16.43441391 34.66060066 C-16.46449202 30.86094501 -16.47080783 27.06198115 -16.45903015 23.26223183 C-16.45880943 21.86985952 -16.4671137 20.47745509 -16.48468399 19.08519363 C-16.6257232 7.26382212 -16.6257232 7.26382212 -13.52622986 3.3276825 C-9.20371825 -0.23861723 -5.34919984 -0.00608691 0 0 Z " fill="#FEFEFE" transform="translate(99.87519836425781,75.85955810546875)"/>
<path d="M0 0 C3.55007248 0.00849648 7.09852337 -0.02032383 10.6484375 -0.05200195 C24.49859345 -0.09472048 37.40259441 0.95932169 50.8203125 4.44604492 C51.66461823 4.66535172 52.50892395 4.88465851 53.3788147 5.11061096 C84.59247557 13.34760535 111.68231181 28.54284372 134.9921875 50.77416992 C137.29440436 52.94919248 139.63162889 54.99231044 142.0703125 57.00854492 C168.23270064 79.77748523 189.43067155 121.53263294 192.6328125 156.13354492 C192.71347113 157.57014044 192.78475608 159.00762626 192.8203125 160.44604492 C189.71013542 157.98683513 187.10779881 155.80745628 184.6328125 152.69604492 C181.46019765 148.70967497 177.43734188 145.72433748 173.47265625 142.56323242 C171.41507449 140.92080339 169.42251942 139.24437853 167.4453125 137.50854492 C164.94086494 135.54076469 162.83489504 134.42135104 159.8203125 133.44604492 C160.4803125 133.11604492 161.1403125 132.78604492 161.8203125 132.44604492 C162.4803125 132.77604492 163.1403125 133.10604492 163.8203125 133.44604492 C151.7812066 104.99609076 136.59418119 79.58640374 111.8203125 60.44604492 C110.85867188 59.65713867 109.89703125 58.86823242 108.90625 58.05541992 C71.62742362 28.04360527 26.41973607 18.80410194 -20.44921875 22.91870117 C-49.68503353 26.19585658 -77.56120671 38.8949523 -100.1796875 57.44604492 C-100.73575684 57.89915039 -101.29182617 58.35225586 -101.86474609 58.8190918 C-135.27121965 86.15776112 -159.37363627 125.60307061 -163.97695923 169.08798218 C-164.28690191 172.69312463 -164.36062043 176.28219178 -164.3828125 179.89916992 C-164.38991745 180.67319153 -164.3970224 181.44721313 -164.40434265 182.24468994 C-164.74911771 230.85888642 -152.02185216 273.43806562 -117.67749023 308.97924805 C-95.98850942 330.21924751 -68.82368706 347.25327235 -39.1796875 354.44604492 C-38.03371094 354.7322168 -36.88773438 355.01838867 -35.70703125 355.31323242 C-29.85862102 356.72329689 -24.14481951 357.72212857 -18.1796875 358.44604492 C-18.19016113 357.47779785 -18.20063477 356.50955078 -18.21142578 355.51196289 C-18.24778121 351.90018448 -18.27064423 348.28842208 -18.28955078 344.67651367 C-18.29957307 343.11691564 -18.31319455 341.55733622 -18.33056641 339.99780273 C-18.3549816 337.74873238 -18.3662084 335.4999117 -18.375 333.25073242 C-18.38532257 332.55986542 -18.39564514 331.86899841 -18.40628052 331.15719604 C-18.40726065 326.8734433 -17.74574399 323.42892214 -16.1796875 319.44604492 C-10.125 319.25073242 -10.125 319.25073242 -8.1796875 319.44604492 C-5.58385213 322.04188029 -5.9293793 323.08212238 -5.9281311 326.69537354 C-5.92005684 328.36511482 -5.92005684 328.36511482 -5.91181946 330.06858826 C-5.91594345 331.29561966 -5.92006744 332.52265106 -5.92431641 333.78686523 C-5.91875882 335.76382605 -5.91319691 337.74078687 -5.90747237 339.71774721 C-5.90312627 341.84690296 -5.90360386 343.97601215 -5.90529251 346.1051712 C-5.90812177 350.54289784 -5.89378718 354.98046476 -5.87631226 359.41815186 C-5.82925139 372.03859035 -5.80535084 384.65901871 -5.79882812 397.27954102 C-5.79507508 404.24693693 -5.77702362 411.21415282 -5.74373376 418.18147159 C-5.72352981 422.59053788 -5.72114471 426.9991395 -5.73201394 431.40823317 C-5.73523841 434.80147448 -5.7125186 438.19445681 -5.69384766 441.58764648 C-5.70202011 442.80658096 -5.71019257 444.02551544 -5.71861267 445.28138733 C-5.64356571 452.93717162 -4.98824283 456.59292011 0.42752647 462.07206726 C3.94526279 464.09201015 7.37677992 463.85276069 11.32275391 463.8135376 C12.18906244 463.81680644 13.05537098 463.82007528 13.94793129 463.82344317 C16.85608968 463.83073668 19.76374723 463.81655445 22.671875 463.80249023 C24.7546192 463.80328093 26.83736326 463.80537763 28.92010498 463.8086853 C34.58118334 463.813826 40.24208039 463.80027038 45.90312958 463.7831583 C51.82164574 463.76813992 57.74015938 463.76929674 63.65869141 463.76849365 C73.59866436 463.76479925 83.53856834 463.74982338 93.47851562 463.72729492 C106.24399686 463.69842179 119.00942252 463.68807191 131.77493286 463.68361282 C142.74003531 463.67963437 153.70512565 463.66713192 164.67021942 463.65326595 C168.19951856 463.64916503 171.72881727 463.64624037 175.25811768 463.64347076 C180.80007835 463.63858023 186.34200528 463.6283809 191.88394928 463.61403275 C193.92054184 463.60950705 195.95713894 463.60667044 197.99373627 463.60562515 C200.76848186 463.60388128 203.54314285 463.59600312 206.31787109 463.58648682 C207.53362288 463.58778654 207.53362288 463.58778654 208.77393532 463.58911252 C212.27260372 463.57104894 215.48214143 463.535869 218.8203125 462.44604492 C219.97953378 460.71461639 219.97953378 460.71461639 220.8203125 458.44604492 C221.32626953 457.5445874 221.83222656 456.64312988 222.35351562 455.71435547 C223.95899256 452.1370386 224.20194136 449.73882949 224.2265625 445.84057617 C224.25943359 443.99496094 224.25943359 443.99496094 224.29296875 442.11206055 C224.31128107 439.53133197 224.32950948 436.95060279 224.34765625 434.36987305 C224.38052734 432.53005859 224.38052734 432.53005859 224.4140625 430.65307617 C224.42469727 428.97435425 224.42469727 428.97435425 224.43554688 427.26171875 C224.8203125 424.44604492 224.8203125 424.44604492 226.15429688 422.57763672 C228.71959509 420.83523384 230.81002817 421.12580191 233.8203125 421.44604492 C237.18171173 424.80744415 236.15068874 429.22819766 236.19140625 433.79760742 C236.19124512 434.47984375 236.19108398 435.16208008 236.19091797 435.86499023 C236.19523875 437.91111845 236.23139036 439.95499389 236.26953125 442.00073242 C236.29509622 450.67577832 235.9111525 458.75651891 229.98193359 465.5534668 C228.82535253 466.69772027 227.63430858 467.80855488 226.40625 468.87573242 C224.69515428 470.36294941 224.69515428 470.36294941 223.984375 472.51635742 C222.19287851 475.48615361 220.1362843 475.59134963 216.8203125 476.44604492 C213.87923747 476.72468034 210.95654843 476.72897887 208.00384521 476.72019958 C207.12781057 476.72543626 206.25177592 476.73067294 205.34919477 476.73606831 C202.41992452 476.75104471 199.49082931 476.75177294 196.56152344 476.75244141 C194.45866095 476.76006449 192.35580125 476.76849225 190.25294495 476.77766418 C184.5441278 476.79960178 178.83536421 476.80840716 173.12650967 476.81349063 C169.55810093 476.81713519 165.98970619 476.82337579 162.4213028 476.83049202 C149.96722294 476.85498432 137.51318473 476.86803787 125.05908203 476.87158203 C113.45858428 476.87521671 101.8583512 476.90510802 90.25793433 476.94698662 C80.29170062 476.98170161 70.32555456 476.99713069 60.3592608 476.99782807 C54.40984477 476.99862048 48.46069836 477.00734339 42.51134491 477.03582573 C36.91338994 477.06202663 31.31592775 477.06419991 25.71793938 477.04817009 C23.66772575 477.04635721 21.61748365 477.05303164 19.56733131 477.0689888 C-1.94097406 477.22614024 -1.94097406 477.22614024 -10.29579544 469.48549557 C-16.46280493 463.21501846 -18.56421628 456.3263899 -18.52026367 447.65307617 C-18.52070175 446.92039017 -18.52113983 446.18770416 -18.52159119 445.43281555 C-18.51952198 443.04110893 -18.49628118 440.65012716 -18.47265625 438.25854492 C-18.46705361 436.58846418 -18.46278667 434.91837847 -18.45979309 433.24829102 C-18.44839682 428.8752455 -18.41897526 424.50250394 -18.38568115 420.12957764 C-18.3548671 415.65828563 -18.34126364 411.186944 -18.32617188 406.71557617 C-18.29409997 397.95892704 -18.24296764 389.2025239 -18.1796875 380.44604492 C-19.0616127 380.38441666 -19.9435379 380.32278839 -20.85218811 380.2592926 C-22.0147966 380.17469284 -23.17740509 380.09009308 -24.37524414 380.00292969 C-25.52529434 379.92067642 -26.67534454 379.83842316 -27.86024475 379.75367737 C-32.23793295 379.34797104 -36.37232163 378.49886262 -40.6171875 377.38354492 C-41.45789795 377.16512939 -42.2986084 376.94671387 -43.16479492 376.72167969 C-74.69476573 368.22937496 -101.79280139 352.96771611 -126.1796875 331.44604492 C-127.07300781 330.68678711 -127.96632812 329.9275293 -128.88671875 329.14526367 C-135.08913058 323.7812731 -140.18228481 317.93375895 -145.1796875 311.44604492 C-145.87215576 310.56601807 -145.87215576 310.56601807 -146.57861328 309.66821289 C-172.92694918 276.15688499 -187.24514707 236.44166624 -186.77661133 193.6628418 C-186.74206303 190.18350978 -186.7561094 186.7067026 -186.77539062 183.22729492 C-186.7668391 169.51258938 -185.56466548 156.741017 -182.1796875 143.44604492 C-181.9230835 142.40222656 -181.66647949 141.3584082 -181.40209961 140.28295898 C-180.77958192 137.89846793 -180.10046862 135.54851339 -179.3671875 133.19604492 C-179.11638428 132.37797363 -178.86558105 131.55990234 -178.60717773 130.71704102 C-176.27085006 123.32835989 -173.36896054 116.26839946 -170.04443359 109.27368164 C-169.21956059 107.53031652 -168.42725805 105.77165129 -167.63671875 104.01245117 C-147.65542129 61.33634673 -107.7349654 27.47303382 -63.98901367 11.19482422 C-55.83744243 8.24711449 -47.62044058 5.44657512 -39.1796875 3.44604492 C-38.14634277 3.18637939 -37.11299805 2.92671387 -36.04833984 2.65917969 C-24.08376811 0.00554953 -12.21691979 -0.04447093 0 0 Z " fill="#364B60" transform="translate(186.1796875,-0.446044921875)"/>
<path d="M0 0 C1.43110107 0.41862305 1.43110107 0.41862305 2.89111328 0.84570312 C15.87048241 4.72038724 28.21069124 9.30536864 40 16 C41.11246094 16.62519531 42.22492188 17.25039063 43.37109375 17.89453125 C70.34113376 33.79163767 92.7725147 58.58085525 106 87 C106 87.66 106 88.32 106 89 C97.69765198 87.20115793 97.69765198 87.20115793 94.35229492 86.23657227 C86.48280138 84.00915066 79.20972505 83.60572153 71.0625 83.75 C69.27489258 83.75773437 69.27489258 83.75773437 67.45117188 83.765625 C62.47918851 83.81029189 57.86716941 83.94048369 53 85 C51.56371543 85.06266512 50.1249445 85.08686347 48.6875 85.0625 C46.8621875 85.0315625 46.8621875 85.0315625 45 85 C45 84.67 45 84.34 45 84 C51.6926182 82.60414667 58.08631778 81.87693813 64.93359375 81.9375 C65.61772339 81.94201172 66.30185303 81.94652344 67.00671387 81.95117188 C68.67118149 81.96280642 70.3356032 81.98073522 72 82 C71.93097795 77.24891856 71.84294247 72.49870507 71.73754883 67.74829102 C71.7043689 66.13348037 71.67631542 64.51855569 71.65356445 62.90356445 C71.61988975 60.57714408 71.56757037 58.25176217 71.51171875 55.92578125 C71.50213387 54.84892815 71.50213387 54.84892815 71.49235535 53.75032043 C71.36474314 49.36427165 70.84354759 46.40110594 68 43 C63.72670332 40.73132368 59.60359882 40.71568776 54.87756348 40.73930359 C54.06419226 40.73547804 53.25082105 40.73165249 52.41280222 40.72771102 C49.68984911 40.71739978 46.96710759 40.72136958 44.24414062 40.7253418 C42.29094752 40.72099433 40.33775612 40.71581107 38.38456726 40.70985413 C33.08095855 40.69645783 27.77742108 40.69588607 22.47379875 40.69841743 C18.0476437 40.69948652 13.62150309 40.69460543 9.19535112 40.689812 C-1.24461414 40.67871503 -11.68454341 40.67828075 -22.12451172 40.68432617 C-32.89966572 40.69036964 -43.67468926 40.67804588 -54.449821 40.6567561 C-63.69833952 40.63915364 -72.94681646 40.63313653 -82.19535112 40.63639385 C-87.72033262 40.63820872 -93.24522102 40.63555001 -98.77018738 40.62167931 C-103.96420768 40.60912735 -109.15802416 40.61102011 -114.35204124 40.62409019 C-116.25921382 40.62646112 -118.16640063 40.62370288 -120.0735569 40.61546707 C-122.67513056 40.6050417 -125.2760149 40.61306615 -127.87756348 40.6257782 C-128.63388738 40.61840391 -129.39021129 40.61102963 -130.1694541 40.60343188 C-134.62259851 40.64927286 -137.47494235 41.22951141 -141 44 C-143.29687622 47.44531432 -143.25621042 48.73062809 -143.27415466 52.78909302 C-143.28412979 53.99711578 -143.29410492 55.20513855 -143.30438232 56.44976807 C-143.3052782 57.79089342 -143.30594173 59.13201895 -143.30639648 60.47314453 C-143.31401792 61.88441405 -143.32244539 63.29567942 -143.33161926 64.7069397 C-143.35359656 68.54663199 -143.36236963 72.38624459 -143.36744571 76.22599268 C-143.37109114 78.63108796 -143.37733274 81.03616248 -143.3844471 83.44124985 C-143.40897078 91.85097922 -143.42199591 100.26064686 -143.42553711 108.67041016 C-143.42915554 116.47457083 -143.45892079 124.27833411 -143.50094169 132.08237374 C-143.53584157 138.80282763 -143.55108907 145.52315141 -143.55178314 152.24369514 C-143.55257051 156.24785599 -143.56105335 160.25161387 -143.58978081 164.25568008 C-143.96446773 187.60649123 -143.96446773 187.60649123 -138 210 C-137.45571602 211.33163429 -137.45571602 211.33163429 -136.9004364 212.69017029 C-136.06156924 214.64797631 -135.13891125 216.50294307 -134.125 218.375 C-133.77969238 219.03234131 -133.43438477 219.68968262 -133.07861328 220.36694336 C-132.07248989 222.25648654 -131.04088077 224.12943921 -130 226 C-129.47921875 226.96292969 -128.9584375 227.92585937 -128.421875 228.91796875 C-113.90705284 253.73245007 -85.34407387 275.32796307 -60 288 C-59.67 287.01 -59.34 286.02 -59 285 C-59.33 293.58 -59.66 302.16 -60 311 C-77.8392859 309.01785712 -95.11505644 303.2810668 -111 295 C-111.94488281 294.53078125 -112.88976562 294.0615625 -113.86328125 293.578125 C-126.71312994 286.95794246 -137.65639354 277.99130379 -148 268 C-148.92554688 267.13761719 -149.85109375 266.27523438 -150.8046875 265.38671875 C-180.2461264 237.23803424 -196.0015204 194.74179995 -197.06689453 154.47143555 C-197.31825873 120.76607395 -185.18634943 84.33754028 -164 58 C-163.28070313 57.07960937 -162.56140625 56.15921875 -161.8203125 55.2109375 C-153.06070806 44.20838937 -143.25910526 35.32844838 -132 27 C-131.43071777 26.5757373 -130.86143555 26.15147461 -130.27490234 25.71435547 C-114.1635357 13.87714983 -95.28544002 5.18235684 -76 0 C-75.2579834 -0.20737793 -74.5159668 -0.41475586 -73.75146484 -0.62841797 C-50.82572471 -6.7792263 -22.72904136 -6.78855107 0 0 Z " fill="#9EB6C4" transform="translate(228,36)"/>
<path d="M0 0 C4.20681494 3.4954186 8.15709919 7.23730659 12.0625 11.0625 C12.62702881 11.60922363 13.19155762 12.15594727 13.77319336 12.71923828 C16.82907693 15.78117679 18.67222376 18.20417127 20.0625 22.375 C21.32560926 24.49932012 22.6756525 26.54459178 24.0390625 28.60546875 C25.0625 30.375 25.0625 30.375 25.0625 32.375 C25.7225 32.375 26.3825 32.375 27.0625 32.375 C28.79536146 35.51348728 29.68624548 38.51510776 30.5 42 C31.49705093 46.27578397 31.49705093 46.27578397 32.79428101 50.46624756 C35.13793689 57.31832849 35.45813572 63.52692016 35.35546875 70.7265625 C35.35122391 71.86660736 35.34697906 73.00665222 35.34260559 74.1812439 C35.32594334 77.78774613 35.28831395 81.39366943 35.25 85 C35.23493709 87.45962729 35.22125151 89.91926343 35.20898438 92.37890625 C35.17864505 98.37800138 35.11989787 104.37586011 35.0625 110.375 C23.5125 110.375 11.9625 110.375 0.0625 110.375 C0.02382813 105.8890625 0.02382813 105.8890625 -0.015625 101.3125 C-0.05422824 98.35993733 -0.09932893 95.40753867 -0.14501953 92.45507812 C-0.17294363 90.43042054 -0.1942974 88.40565973 -0.20849609 86.38085938 C-0.35560178 66.57062718 -2.13171119 48.27784627 -16.203125 33.0234375 C-18.56735698 30.77635215 -21.16374649 29.07707602 -23.9375 27.375 C-24.63746094 26.64216797 -24.63746094 26.64216797 -25.3515625 25.89453125 C-33.2763552 18.30156485 -48.36221498 16.01208925 -58.8203125 16.16796875 C-74.85344622 17.232826 -87.90837234 23.76972388 -98.9375 35.375 C-102.04500328 39.03950859 -104.40862411 42.78837233 -105.9375 47.375 C-106.5975 47.375 -107.2575 47.375 -107.9375 47.375 C-111.87398865 61.021494 -111.21657103 75.5368447 -111.5 89.625 C-111.54328255 91.64193435 -111.58689961 93.65886155 -111.63085938 95.67578125 C-111.73754886 100.57544532 -111.83737324 105.47518004 -111.9375 110.375 C-123.8175 110.375 -135.6975 110.375 -147.9375 110.375 C-147.9837486 104.0800512 -148.02347158 97.78570683 -148.04736328 91.49072266 C-148.05733745 89.35528552 -148.07092161 87.21986173 -148.08837891 85.08447266 C-148.33469026 54.15066417 -142.441719 29.09918628 -120.25 6.1875 C-87.60653319 -26.15327759 -35.98100727 -27.61062755 0 0 Z " fill="#C4CCDF" transform="translate(351.9375,148.625)"/>
<path d="M0 0 C3.26347714 1.63173857 4.79661126 2.54533951 7.24324036 4.98254395 C8.17028526 5.89896164 8.17028526 5.89896164 9.11605835 6.83389282 C9.78263458 7.50294647 10.44921082 8.17200012 11.13598633 8.86132812 C11.84709061 9.56732147 12.55819489 10.27331482 13.29084778 11.0007019 C15.64311371 13.33905604 17.98786292 15.68478007 20.33203125 18.03125 C21.96842328 19.66375399 23.60503849 21.2960343 25.24186707 22.92810059 C28.67581777 26.35458419 32.10586005 29.78492478 35.53344727 33.21777344 C39.90943631 37.59953622 44.29663442 41.969877 48.6871233 46.3371048 C52.07345338 49.70863806 55.4527617 53.08714262 58.83014488 56.46763611 C60.44360299 58.08058328 62.05940439 59.69119015 63.67765236 61.29933167 C90.17980556 87.65631893 90.17980556 87.65631893 90.375 108.4375 C90.38005251 122.12777236 87.7509191 130.94180902 78.37963867 140.97094727 C69.68246789 149.65059226 60.70853255 151.21108387 48.9375 151.3125 C47.84244141 151.34150391 46.74738281 151.37050781 45.61914062 151.40039062 C31.73077446 151.50792413 23.17995337 145.97262949 13.4296875 136.50390625 C11.73432124 134.80076309 10.04671276 133.08986025 8.3671875 131.37109375 C6.30945741 129.30996806 4.21384592 127.38932633 2 125.5 C-1.2621461 122.67995172 -4.44016584 119.78718554 -7.5625 116.8125 C-8.43003906 115.99394531 -9.29757812 115.17539062 -10.19140625 114.33203125 C-12 112 -12 112 -11.98828125 109.93359375 C-10.44242985 106.90910188 -8.15782701 104.78962905 -5.7890625 102.390625 C-0.34631257 95.11778011 -0.49809193 87.53127577 -0.55395508 78.74389648 C-0.56255616 76.67398411 -0.53348548 74.60675644 -0.50195312 72.53710938 C-0.50259766 71.22935547 -0.50324219 69.92160156 -0.50390625 68.57421875 C-0.50205322 67.38401123 -0.5002002 66.19380371 -0.49829102 64.9675293 C-0.69506566 61.89215796 -0.69506566 61.89215796 -3.0065918 60.2578125 C-3.6644165 59.84273438 -4.32224121 59.42765625 -5 59 C-5.390625 56.30078125 -5.390625 56.30078125 -5.25 53.3125 C-5.21390625 52.31863281 -5.1778125 51.32476562 -5.140625 50.30078125 C-5.07101562 49.16189453 -5.07101562 49.16189453 -5 48 C-5.66 47.67 -6.32 47.34 -7 47 C-5.02 46.34 -3.04 45.68 -1 45 C-0.67 30.15 -0.34 15.3 0 0 Z " fill="#ED5541" transform="translate(422,361)"/>
<path d="M0 0 C14.39514112 12.80226653 25.05369427 27.89298949 33.99511719 44.8671875 C34.49575684 45.81368164 34.99639648 46.76017578 35.51220703 47.73535156 C38.54013417 53.65418616 40.76811131 59.49272436 42.43261719 65.9296875 C38.53263496 64.6648284 34.66643776 63.31411041 30.80761719 61.9296875 C29.88722656 61.5996875 28.96683594 61.2696875 28.01855469 60.9296875 C25.73752495 60.04759745 23.59530769 59.06687687 21.43261719 57.9296875 C22.09261719 57.5996875 22.75261719 57.2696875 23.43261719 56.9296875 C24.42261719 57.2596875 25.41261719 57.5896875 26.43261719 57.9296875 C18.10441182 41.32100288 7.96480939 26.64817945 -4.56738281 12.9296875 C-5.37691406 12.03636719 -6.18644531 11.14304688 -7.02050781 10.22265625 C-31.22526497 -15.22439805 -70.41341703 -33.18344322 -105.53120422 -34.35882568 C-109.18947074 -34.44042915 -112.8458211 -34.45503686 -116.50488281 -34.4453125 C-117.66115677 -34.44449677 -117.66115677 -34.44449677 -118.84078979 -34.44366455 C-131.4516734 -34.40284787 -143.36733677 -33.47996706 -155.56738281 -30.0703125 C-156.30553223 -29.87195801 -157.04368164 -29.67360352 -157.80419922 -29.46923828 C-181.25516757 -22.98631169 -203.16221617 -10.89641121 -221.56738281 4.9296875 C-222.52128906 5.74953125 -223.47519531 6.569375 -224.45800781 7.4140625 C-254.12200396 33.45979774 -272.78967772 73.66812011 -275.48925781 112.99609375 C-276.61658577 155.32725871 -262.98911922 198.49431958 -233.66430664 229.67138672 C-232.30297534 231.09495439 -230.93525216 232.51240091 -229.56738281 233.9296875 C-228.77847656 234.78175781 -227.98957031 235.63382812 -227.17675781 236.51171875 C-220.36097649 243.67731666 -212.72757428 249.40301237 -204.56738281 254.9296875 C-203.66826172 255.53925293 -203.66826172 255.53925293 -202.75097656 256.16113281 C-183.80161322 268.76974765 -161.63569984 275.20898664 -139.56738281 279.9296875 C-139.56738281 283.5596875 -139.56738281 287.1896875 -139.56738281 290.9296875 C-145.90572493 291.179113 -151.42284326 290.32351782 -157.56738281 288.8046875 C-158.49019043 288.5780542 -159.41299805 288.3514209 -160.36376953 288.11791992 C-180.87838371 282.91380583 -199.64402534 273.64888176 -216.56738281 260.9296875 C-217.11668457 260.52169922 -217.66598633 260.11371094 -218.23193359 259.69335938 C-246.89467071 238.30447551 -267.22092472 211.64619643 -278.93115234 177.765625 C-279.5099455 176.09543139 -280.11350365 174.43387177 -280.71972656 172.7734375 C-289.59204092 146.79262264 -290.45187585 111.53779106 -283.56738281 84.9296875 C-283.34695313 84.0545752 -283.12652344 83.17946289 -282.89941406 82.27783203 C-271.43062714 38.09417871 -242.07366872 -1.50572068 -202.55957031 -24.75415039 C-135.74624709 -62.60684564 -56.6698086 -49.46143174 0 0 Z " fill="#5D6E7F" transform="translate(307.5673828125,67.0703125)"/>
<path d="M0 0 C0.7425 0.54785156 1.485 1.09570312 2.25 1.66015625 C11.34717787 8.94823625 15.73460433 18.61143897 17 30 C17 44.52 17 59.04 17 74 C-13.03 74 -43.06 74 -74 74 C-74.103125 66.513125 -74.20625 59.02625 -74.3125 51.3125 C-74.35802002 48.97712158 -74.40354004 46.64174316 -74.45043945 44.2355957 C-74.61888981 29.39262395 -73.31423923 17.4902095 -63 6 C-62.42636719 5.32324219 -61.85273438 4.64648438 -61.26171875 3.94921875 C-44.90366411 -14.03448107 -18.69394877 -14.04967087 0 0 Z " fill="#9DB5C3" transform="translate(324,185)"/>
<path d="M0 0 C0.68707031 0.43570312 1.37414062 0.87140625 2.08203125 1.3203125 C8.25085753 5.509163 11.50077255 10.35901905 14.3125 17.1875 C16.20585412 27.68700923 15.42331651 36.65191496 10 46 C8.97900208 46.91174232 8.97900208 46.91174232 7.93737793 47.84190369 C5.57605236 50.47224644 5.50510026 51.60604177 5.51757812 55.08813477 C5.51077026 56.09920792 5.5039624 57.11028107 5.49694824 58.1519928 C5.50826782 59.23749924 5.5195874 60.32300568 5.53125 61.44140625 C5.52420044 62.56062973 5.51715088 63.67985321 5.5098877 64.83299255 C5.4878138 68.40972706 5.49087372 71.98571698 5.5 75.5625 C5.51200011 80.27254196 5.49844151 84.98146333 5.46875 89.69140625 C5.48006958 90.77893692 5.49138916 91.86646759 5.50305176 92.98695374 C5.4962439 93.99487473 5.48943604 95.00279572 5.48242188 96.04125977 C5.48560425 96.92854263 5.48878662 97.8158255 5.49206543 98.72999573 C5 101 5 101 3.19506836 102.78565979 C-0.06596829 104.58970745 -3.27494531 104.42854691 -6.90625 104.3984375 C-7.66796509 104.40130768 -8.42968018 104.40417786 -9.21447754 104.40713501 C-10.82154079 104.40917234 -12.42862902 104.40366558 -14.03564453 104.39111328 C-16.4917764 104.37505377 -18.94626289 104.39097196 -21.40234375 104.41015625 C-22.96614946 104.40817376 -24.52995414 104.40432996 -26.09375 104.3984375 C-27.19233337 104.40754654 -27.19233337 104.40754654 -28.31311035 104.4168396 C-32.55914953 104.35843697 -34.95821314 104.00759964 -38 101 C-38.47860718 98.75018311 -38.47860718 98.75018311 -38.45068359 96.08886719 C-38.45103607 95.09062927 -38.45138855 94.09239136 -38.45175171 93.06390381 C-38.42536118 91.44672455 -38.42536118 91.44672455 -38.3984375 89.796875 C-38.40317498 87.51432189 -38.40839865 85.23176975 -38.4140625 82.94921875 C-38.39933876 79.35024692 -38.37501625 75.75166269 -38.33984375 72.15283203 C-38.31312976 68.67953641 -38.32279255 65.20771549 -38.3359375 61.734375 C-38.31429535 60.66435242 -38.2926532 59.59432983 -38.27035522 58.49188232 C-38.30426186 53.34310124 -38.45506103 49.98315742 -41.92431641 46.01269531 C-42.45344635 45.51457336 -42.98257629 45.01645142 -43.52774048 44.50323486 C-48.71748053 39.2043062 -48.51289482 30.85125418 -48.49438477 23.88745117 C-48.26887777 17.78723474 -46.69718761 13.75936305 -43 9 C-42.236875 7.9275 -41.47375 6.855 -40.6875 5.75 C-30.50975177 -4.66444005 -12.50098241 -8.73170572 0 0 Z " fill="#080302" transform="translate(312,324)"/>
<path d="M0 0 C3.375 -0.125 3.375 -0.125 7 0 C9.59583537 2.59583537 9.2503082 3.63607746 9.2515564 7.24932861 C9.25693924 8.36248947 9.26232208 9.47565033 9.26786804 10.62254333 C9.26374405 11.84957474 9.25962006 13.07660614 9.25537109 14.34082031 C9.26092868 16.31778113 9.26649059 18.29474195 9.27221513 20.27170229 C9.27656123 22.40085804 9.27608364 24.52996722 9.27439499 26.65912628 C9.27156573 31.09685292 9.28590032 35.53441983 9.30337524 39.97210693 C9.35043611 52.59254543 9.37433666 65.21297379 9.38085938 77.83349609 C9.38461242 84.80089201 9.40266388 91.7681079 9.43595374 98.73542666 C9.45615769 103.14449296 9.45854279 107.55309458 9.44767356 111.96218824 C9.44444909 115.35542956 9.4671689 118.74841189 9.48583984 122.14160156 C9.47766739 123.36053604 9.46949493 124.57947052 9.46107483 125.83534241 C9.53612179 133.49112669 10.19144467 137.14687519 15.60721397 142.62602234 C19.12495029 144.64596523 22.55646742 144.40671577 26.50244141 144.36749268 C27.36874994 144.37076152 28.23505848 144.37403036 29.12761879 144.37739825 C32.03577718 144.38469175 34.94343473 144.37050953 37.8515625 144.35644531 C39.9343067 144.357236 42.01705076 144.3593327 44.09979248 144.36264038 C49.76087084 144.36778107 55.42176789 144.35422546 61.08281708 144.33711338 C67.00133324 144.32209499 72.91984688 144.32325182 78.83837891 144.32244873 C88.77835186 144.31875432 98.71825584 144.30377846 108.65820312 144.28125 C121.42368436 144.25237687 134.18911002 144.24202699 146.95462036 144.2375679 C157.91972281 144.23358945 168.88481315 144.22108699 179.84990692 144.20722103 C183.37920606 144.20312011 186.90850477 144.20019545 190.43780518 144.19742584 C195.97976585 144.19253531 201.52169278 144.18233598 207.06363678 144.16798782 C209.10022934 144.16346213 211.13682644 144.16062552 213.17342377 144.15958023 C215.94816936 144.15783636 218.72283035 144.1499582 221.49755859 144.14044189 C222.71331038 144.14174162 222.71331038 144.14174162 223.95362282 144.1430676 C227.45229122 144.12500402 230.66182893 144.08982408 234 143 C235.15922128 141.26857146 235.15922128 141.26857146 236 139 C236.75893555 137.64781372 236.75893555 137.64781372 237.53320312 136.26831055 C239.13868006 132.69099368 239.38162886 130.29278456 239.40625 126.39453125 C239.43912109 124.54891602 239.43912109 124.54891602 239.47265625 122.66601562 C239.49096857 120.08528705 239.50919698 117.50455787 239.52734375 114.92382812 C239.56021484 113.08401367 239.56021484 113.08401367 239.59375 111.20703125 C239.60083984 110.0878833 239.60792969 108.96873535 239.61523438 107.81567383 C240 105 240 105 241.33398438 103.1315918 C243.89928259 101.38918892 245.98971567 101.67975699 249 102 C252.36139923 105.36139923 251.33037624 109.78215274 251.37109375 114.3515625 C251.37093262 115.03379883 251.37077148 115.71603516 251.37060547 116.41894531 C251.37492625 118.46507353 251.41107786 120.50894897 251.44921875 122.5546875 C251.47478372 131.2297334 251.09084 139.31047399 245.16162109 146.10742188 C244.00504003 147.25167535 242.81399608 148.36250996 241.5859375 149.4296875 C239.87484178 150.91690449 239.87484178 150.91690449 239.1640625 153.0703125 C237.37256601 156.04010869 235.3159718 156.1453047 232 157 C229.05892497 157.27863542 226.13623593 157.28293395 223.18353271 157.27415466 C222.30749807 157.27939134 221.43146342 157.28462802 220.52888227 157.29002339 C217.59961202 157.30499979 214.67051681 157.30572802 211.74121094 157.30639648 C209.63834845 157.31401957 207.53548875 157.32244733 205.43263245 157.33161926 C199.7238153 157.35355686 194.01505171 157.36236224 188.30619717 157.36744571 C184.73778843 157.37109026 181.16939369 157.37733086 177.6009903 157.3844471 C165.14691044 157.4089394 152.69287223 157.42199294 140.23876953 157.42553711 C128.63827178 157.42917179 117.0380387 157.4590631 105.43762183 157.50094169 C95.47138812 157.53565669 85.50524206 157.55108577 75.5389483 157.55178314 C69.58953227 157.55257556 63.64038586 157.56129847 57.69103241 157.58978081 C52.09307744 157.61598171 46.49561525 157.61815499 40.89762688 157.60212517 C38.84741325 157.60031229 36.79717115 157.60698671 34.74701881 157.62294388 C13.23871344 157.78009532 13.23871344 157.78009532 4.88389206 150.03945065 C-1.28311743 143.76897354 -3.38452878 136.88034498 -3.34057617 128.20703125 C-3.34101425 127.47434525 -3.34145233 126.74165924 -3.34190369 125.98677063 C-3.33983448 123.59506401 -3.31659368 121.20408224 -3.29296875 118.8125 C-3.28736611 117.14241926 -3.28309917 115.47233355 -3.28010559 113.80224609 C-3.26870932 109.42920058 -3.23928776 105.05645902 -3.20599365 100.68353271 C-3.1751796 96.21224071 -3.16157614 91.74089908 -3.14648438 87.26953125 C-3.11441247 78.51288211 -3.06328014 69.75647898 -3 61 C-2.34 61 -1.68 61 -1 61 C-1.00222061 60.26528473 -1.00444122 59.53056946 -1.00672913 58.77359009 C-1.02674643 51.85762914 -1.04198151 44.94167252 -1.05181217 38.02569008 C-1.05703606 34.46991365 -1.06412478 30.91416111 -1.07543945 27.35839844 C-1.08835914 23.27278409 -1.09323229 19.18719494 -1.09765625 15.1015625 C-1.10539818 13.18121689 -1.10539818 13.18121689 -1.11329651 11.22207642 C-1.11337204 10.04100311 -1.11344757 8.85992981 -1.11352539 7.64306641 C-1.115746 6.59937897 -1.11796661 5.55569153 -1.12025452 4.4803772 C-1 2 -1 2 0 0 Z " fill="#050100" transform="translate(171,319)"/>
<path d="M0 0 C0.70706085 0.00359528 1.4141217 0.00719055 2.14260864 0.01089478 C3.25473473 0.01067574 3.25473473 0.01067574 4.389328 0.01045227 C6.85130696 0.01115152 9.31321119 0.01894442 11.775177 0.02676392 C13.47768614 0.02862806 15.18019582 0.03005198 16.88270569 0.03105164 C21.37245148 0.03487714 25.86216513 0.0447077 30.35189819 0.05575562 C34.92983566 0.06596903 39.50777831 0.07054911 44.08572388 0.07559204 C53.07467032 0.08632994 62.06359287 0.10340675 71.05252075 0.12442017 C71.54752075 6.55942017 71.54752075 6.55942017 72.05252075 13.12442017 C73.37252075 13.45442017 74.69252075 13.78442017 76.05252075 14.12442017 C74.42443481 14.52274048 74.42443481 14.52274048 72.76345825 14.92910767 C71.31811428 15.28575098 69.87280354 15.64252897 68.42752075 15.99942017 C67.71466919 16.1734436 67.00181763 16.34746704 66.2673645 16.52676392 C62.1245586 17.55296354 58.08525397 18.71232746 54.05252075 20.12442017 C54.05252075 20.78442017 54.05252075 21.44442017 54.05252075 22.12442017 C53.12439575 22.47504517 52.19627075 22.82567017 51.24002075 23.18692017 C36.471204 29.63902849 24.41855291 41.20575513 15.05252075 54.12442017 C14.61166138 54.72254517 14.170802 55.32067017 13.71658325 55.93692017 C11.85444949 58.57824466 10.54737741 60.90785191 10.05252075 64.12442017 C9.39252075 64.12442017 8.73252075 64.12442017 8.05252075 64.12442017 C7.68127075 65.26910767 7.68127075 65.26910767 7.30252075 66.43692017 C6.31186794 69.35934597 5.26105217 72.23642501 4.17752075 75.12442017 C-0.43910103 87.76393524 -3.05715155 99.45014095 -3.2638855 112.86660767 C-3.2846666 113.99011627 -3.30544769 115.11362488 -3.32685852 116.2711792 C-3.39205149 119.84719948 -3.45109809 123.42329093 -3.50997925 126.99942017 C-3.55319324 129.42911492 -3.59680845 131.85880257 -3.64083862 134.28848267 C-3.74770179 140.23372074 -3.84952352 146.17902902 -3.94747925 152.12442017 C-5.26747925 151.79442017 -6.58747925 151.46442017 -7.94747925 151.12442017 C-7.28747925 151.12442017 -6.62747925 151.12442017 -5.94747925 151.12442017 C-5.94840104 150.35228211 -5.94932283 149.58014406 -5.95027256 148.78460789 C-5.97232645 130.02424716 -5.98889015 111.26388901 -5.99929142 92.5035181 C-6.00445468 83.43126524 -6.01149794 74.35902101 -6.0229187 65.28677368 C-6.03286463 57.38233304 -6.03933246 49.47789866 -6.04156774 41.57345194 C-6.04287501 37.38547297 -6.04596183 33.1975119 -6.0532093 29.00953865 C-6.05996809 25.07226719 -6.0620965 21.13502108 -6.06058693 17.19774437 C-6.06086332 15.74847399 -6.06286929 14.29920282 -6.06668472 12.84993744 C-6.07161968 10.87971603 -6.06987734 8.90948119 -6.06773376 6.93925476 C-6.06865556 5.83402497 -6.06957735 4.72879519 -6.07052708 3.59007359 C-5.85144336 -0.79996334 -3.90095363 0.00836779 0 0 Z " fill="#9DB5C3" transform="translate(196.94747924804688,107.87557983398438)"/>
<path d="M0 0 C1.34819824 0.00602737 1.34819824 0.00602737 2.72363281 0.01217651 C3.7498877 0.01992599 3.7498877 0.01992599 4.796875 0.02783203 C4.92553818 6.94290879 5.01199042 13.85766813 5.0715332 20.77368164 C5.0964014 23.11754893 5.13030851 25.46134101 5.17407227 27.80493164 C5.55963942 49.01112487 2.77052434 63.58492512 -6.203125 83.02783203 C-18.743125 83.02783203 -31.283125 83.02783203 -44.203125 83.02783203 C-42.59087942 78.99721807 -41.41785798 76.77707193 -38.890625 73.46533203 C-31.46955367 63.09129273 -27.82400852 51.59398552 -28.140625 38.92626953 C-28.14955277 37.20232202 -28.15598923 35.47836012 -28.16015625 33.75439453 C-28.17443372 31.0692453 -28.20352223 28.38789396 -28.27490234 25.70361328 C-28.63814002 10.73712876 -28.63814002 10.73712876 -25.12109375 6.54785156 C-22.50644368 4.92839533 -20.14104637 3.91490989 -17.203125 3.02783203 C-16.130625 2.61791016 -15.058125 2.20798828 -13.953125 1.78564453 C-13.045625 1.57681641 -12.138125 1.36798828 -11.203125 1.15283203 C-10.295625 0.92853516 -9.388125 0.70423828 -8.453125 0.47314453 C-5.56025047 0.07676509 -2.91165027 -0.01689374 0 0 Z " fill="#FCFCFD" transform="translate(295.203125,174.97216796875)"/>
<path d="M0 0 C5.257281 3.41765458 8.13545296 5.93044761 9.5625 12.1875 C10.26449305 19.63700829 10.11496782 26.00513629 5.5625 32.1875 C4.88896484 32.65833008 4.21542969 33.12916016 3.52148438 33.61425781 C0.3876681 37.73071139 0.95913783 42.04085479 0.953125 47.078125 C0.93658875 48.13787537 0.92005249 49.19762573 0.90301514 50.28948975 C0.85445445 53.67221831 0.83314563 57.05449705 0.8125 60.4375 C0.78434717 62.73179356 0.75442072 65.0260661 0.72265625 67.3203125 C0.64535561 72.9429169 0.60490882 78.56409081 0.5625 84.1875 C-6.6975 84.1875 -13.9575 84.1875 -21.4375 84.1875 C-21.42847656 80.8875 -21.41945313 77.5875 -21.41015625 74.1875 C-21.42519378 70.97366414 -21.45214151 67.76013196 -21.48022461 64.54638672 C-21.49332365 62.32149029 -21.49413605 60.09648489 -21.48217773 57.87158203 C-21.46710531 54.66330826 -21.49694381 51.45802903 -21.53515625 48.25 C-21.52090103 47.26322266 -21.50664581 46.27644531 -21.49195862 45.25976562 C-21.64911129 37.67811357 -24.1267807 34.37041549 -29.4375 29.1875 C-31.92456153 25.4569077 -31.76846694 23.32674196 -31.8125 18.875 C-31.84085937 17.57949219 -31.86921875 16.28398437 -31.8984375 14.94921875 C-31.0863593 8.3218348 -27.13917864 4.46738659 -22.1484375 0.4453125 C-15.23422248 -4.63774055 -7.20599279 -4.24563611 0 0 Z " fill="#F72826" transform="translate(306.4375,332.8125)"/>
<path d="M0 0 C4.83594503 4.03705627 9.40811431 8.25537774 13.86572266 12.70458984 C14.51220261 13.34610489 15.15868256 13.98761993 15.82475281 14.64857483 C17.9406093 16.74994808 20.05266294 18.85508664 22.1640625 20.9609375 C22.89058392 21.68463154 23.61710533 22.40832558 24.36564255 23.15394974 C28.20610708 26.97948231 32.04373078 30.80783716 35.87890625 34.63867188 C39.82735403 38.58162623 43.78500118 42.51520946 47.74488258 46.44667625 C50.80236052 49.48548629 53.853067 52.53102659 56.90198898 55.57841873 C58.35786721 57.03128221 59.81623201 58.4816586 61.27717972 59.92942429 C63.32300446 61.95809263 65.35904251 63.99612991 67.39306641 66.03662109 C67.99059219 66.6249321 68.58811798 67.2132431 69.20375061 67.81938171 C76.64793611 75.33753224 80.9417046 82.9389787 81.375 93.6875 C81.19383085 102.73463429 78.48232363 111.54596941 72.71875 118.6328125 C70.6325928 120.29225573 69.39544259 120.53873557 66.75 120.625 C63 120 63 120 61 118 C60.14792473 112.88754836 61.07286758 110.61381911 64 106.375 C67.76563425 100.4984639 68.41335972 94.81413096 67 88 C63.76449915 79.22781835 56.60825612 73.32661861 49.9892025 67.08589172 C47.91174468 65.12080289 45.85369063 63.13725706 43.80049133 61.14685059 C37.96753175 55.49286577 32.12642301 49.84897291 26.21459961 44.27734375 C22.58590739 40.85478686 19.00113602 37.3910901 15.44059181 33.89775085 C14.08558955 32.58389742 12.71529415 31.28561101 11.32932091 30.00447083 C-0.03510543 19.48069209 -0.03510543 19.48069209 -0.82138062 12.28979492 C-0.96458611 8.1230997 -0.60694963 4.12008658 0 0 Z " fill="#FD9E81" transform="translate(423,375)"/>
<path d="M0 0 C0.10019428 5.15538099 0.17208163 10.31017368 0.21972656 15.46630859 C0.23962459 17.21380507 0.26675319 18.96123694 0.30175781 20.70849609 C0.71763579 42.02835812 -5.12625143 55.18937715 -17 73 C10.06 72.67 37.12 72.34 65 72 C67.97 64.575 67.97 64.575 71 57 C71.66 56.01 72.32 55.02 73 54 C73 60.6 73 67.2 73 74 C42.97 74 12.94 74 -18 74 C-18.103125 66.513125 -18.20625 59.02625 -18.3125 51.3125 C-18.35802002 48.97712158 -18.40354004 46.64174316 -18.45043945 44.2355957 C-18.64529277 27.08219498 -15.91284247 15.10555647 -3.6875 2.5 C-1 0 -1 0 0 0 Z " fill="#9CB4C2" transform="translate(268,185)"/>
<path d="M0 0 C0.33 0 0.66 0 1 0 C0.67 13.86 0.34 27.72 0 42 C10.56 42 21.12 42 32 42 C31.92124107 33.7585309 31.92124107 33.7585309 31.81982422 25.51733398 C31.79146062 19.62182311 31.93084568 14.54761455 34 9 C34.33 9 34.66 9 35 9 C34.67 25.83 34.34 42.66 34 60 C22.12 60 10.24 60 -2 60 C-2.0462486 53.7050512 -2.08597158 47.41070683 -2.10986328 41.11572266 C-2.11983745 38.98028552 -2.13342161 36.84486173 -2.15087891 34.70947266 C-2.24442749 22.96087138 -2.25545861 11.57734277 0 0 Z " fill="#A5ACBC" transform="translate(206,199)"/>
<path d="M0 0 C2.20348536 3.30522804 2.24563385 4.27660999 2.22705078 8.11401367 C2.22689972 9.15486618 2.22674866 10.19571869 2.22659302 11.26811218 C2.21627045 12.39006485 2.20594788 13.51201752 2.1953125 14.66796875 C2.1924826 15.81791824 2.18965271 16.96786774 2.18673706 18.15266418 C2.17552833 21.83104796 2.15042224 25.50918962 2.125 29.1875 C2.11497111 31.67903295 2.1058451 34.1705697 2.09765625 36.66210938 C2.07728704 42.77490826 2.0381389 48.88718261 2 55 C-9.55 55 -21.1 55 -33 55 C-33.33 39.49 -33.66 23.98 -34 8 C-33.34 8 -32.68 8 -32 8 C-32 17.57 -32 27.14 -32 37 C-21.11 37 -10.22 37 1 37 C0.67 24.79 0.34 12.58 0 0 Z " fill="#ABB2C3" transform="translate(385,204)"/>
<path d="M0 0 C0.70706085 0.00359528 1.4141217 0.00719055 2.14260864 0.01089478 C3.25473473 0.01067574 3.25473473 0.01067574 4.389328 0.01045227 C6.85130696 0.01115152 9.31321119 0.01894442 11.775177 0.02676392 C13.47768614 0.02862806 15.18019582 0.03005198 16.88270569 0.03105164 C21.37245148 0.03487714 25.86216513 0.0447077 30.35189819 0.05575562 C34.92983566 0.06596903 39.50777831 0.07054911 44.08572388 0.07559204 C53.07467032 0.08632994 62.06359287 0.10340675 71.05252075 0.12442017 C71.54752075 6.55942017 71.54752075 6.55942017 72.05252075 13.12442017 C73.37252075 13.45442017 74.69252075 13.78442017 76.05252075 14.12442017 C73.74252075 14.45442017 71.43252075 14.78442017 69.05252075 15.12442017 C69.05252075 10.83442017 69.05252075 6.54442017 69.05252075 2.12442017 C44.63252075 2.12442017 20.21252075 2.12442017 -4.94747925 2.12442017 C-4.94747925 51.29442017 -4.94747925 100.46442017 -4.94747925 151.12442017 C-5.27747925 151.12442017 -5.60747925 151.12442017 -5.94747925 151.12442017 C-5.97080682 131.58412222 -5.98845773 112.04382708 -5.99929142 92.5035181 C-6.00445468 83.43126524 -6.01149794 74.35902101 -6.0229187 65.28677368 C-6.03286463 57.38233304 -6.03933246 49.47789866 -6.04156774 41.57345194 C-6.04287501 37.38547297 -6.04596183 33.1975119 -6.0532093 29.00953865 C-6.05996809 25.07226719 -6.0620965 21.13502108 -6.06058693 17.19774437 C-6.06086332 15.74847399 -6.06286929 14.29920282 -6.06668472 12.84993744 C-6.07161968 10.87971603 -6.06987734 8.90948119 -6.06773376 6.93925476 C-6.06865556 5.83402497 -6.06957735 4.72879519 -6.07052708 3.59007359 C-5.85144336 -0.79996334 -3.90095363 0.00836779 0 0 Z " fill="#B1C5D6" transform="translate(196.94747924804688,107.87557983398438)"/>
<path d="M0 0 C0.33 0 0.66 0 1 0 C1 15.18 1 30.36 1 46 C28.06 45.67 55.12 45.34 83 45 C85.97 37.575 85.97 37.575 89 30 C89.99 28.515 89.99 28.515 91 27 C91 33.6 91 40.2 91 47 C60.97 47 30.94 47 0 47 C0 31.49 0 15.98 0 0 Z " fill="#6E7A81" transform="translate(250,212)"/>
<path d="M0 0 C0.66 0 1.32 0 2 0 C2.00423194 0.65745712 2.00846388 1.31491425 2.01282406 1.99229431 C2.11624999 18.00958198 2.22490527 34.02682442 2.33933926 50.04403687 C2.39455392 57.78992243 2.44801617 65.53581261 2.49731445 73.28173828 C2.54030077 80.03519993 2.58661439 86.78862928 2.63687855 93.54204082 C2.66336358 97.11597848 2.68821289 100.68991022 2.70907402 104.2638855 C2.73245758 108.25930523 2.76327138 112.25463527 2.79467773 116.25 C2.80331093 118.01622459 2.80331093 118.01622459 2.81211853 119.81813049 C2.86404887 125.63472869 3.12506153 131.24728026 4 137 C1.78151864 135.25613472 1.05795525 134.37082344 0.61523914 131.53812885 C0.61063018 130.55273215 0.60602121 129.56733545 0.60127258 128.55207825 C0.58873444 127.42045761 0.57619629 126.28883698 0.5632782 125.1229248 C0.56471329 123.88071167 0.56614838 122.63849854 0.56762695 121.35864258 C0.5574353 120.05122604 0.54724365 118.74380951 0.53674316 117.39677429 C0.50912287 113.81026748 0.49988191 110.22391921 0.49388909 106.6373198 C0.48451842 102.88963405 0.45831616 99.14206733 0.43388367 95.39445496 C0.39017885 88.29721857 0.36165642 81.20000524 0.33856028 74.10267514 C0.31152989 66.02288445 0.26761711 57.94321329 0.22227156 49.86350787 C0.12936829 33.24239912 0.05771366 16.62126897 0 0 Z " fill="#E42422" transform="translate(179,320)"/>
<path d="M0 0 C0.04941382 5.35683849 0.08572607 10.7135445 0.10986328 16.07055664 C0.11992491 17.89317129 0.1335756 19.71576979 0.15087891 21.53833008 C0.17512021 24.15710435 0.18648138 26.77566531 0.1953125 29.39453125 C0.20563507 30.21025101 0.21595764 31.02597076 0.22659302 31.8664093 C0.2273686 35.77130756 0.21650661 37.67524008 -2 41 C-2.495 23.675 -2.495 23.675 -3 6 C-5.97 8.475 -5.97 8.475 -9 11 C-9 8 -9 8 -7.28515625 5.95703125 C-6.55167969 5.24933594 -5.81820313 4.54164063 -5.0625 3.8125 C-4.33160156 3.09707031 -3.60070312 2.38164062 -2.84765625 1.64453125 C-1 0 -1 0 0 0 Z " fill="#97B5CA" transform="translate(268,185)"/>
<path d="M0 0 C0.33 0 0.66 0 1 0 C1 5.28 1 10.56 1 16 C-1.31 16 -3.62 16 -6 16 C-4.02 10.72 -2.04 5.44 0 0 Z " fill="#607385" transform="translate(339,242)"/>
<path d="M0 0 C0.66 0.33 1.32 0.66 2 1 C-2.76008307 6.5930976 -7.74595676 11.86877855 -13 17 C-13.66 16.67 -14.32 16.34 -15 16 C-10.23991693 10.4069024 -5.25404324 5.13122145 0 0 Z " fill="#A9B0C1" transform="translate(238,149)"/>
<path d="M0 0 C-1.35236577 2.93879484 -2.89942659 5.29232911 -5 7.75 C-5.515625 8.36359375 -6.03125 8.9771875 -6.5625 9.609375 C-8 11 -8 11 -10 11 C-8.73396788 6.69549079 -5.08358566 0 0 0 Z " fill="#D42C23" transform="translate(286,333)"/>
<path d="M0 0 C0 3.52232517 -0.56731481 4.05751328 -2.8125 6.625 C-3.59560547 7.54152344 -3.59560547 7.54152344 -4.39453125 8.4765625 C-6 10 -6 10 -9 11 C-7.59155282 7.78475695 -5.89655214 5.67816132 -3.375 3.25 C-2.74335938 2.63640625 -2.11171875 2.0228125 -1.4609375 1.390625 C-0.73777344 0.70226562 -0.73777344 0.70226562 0 0 Z " fill="#859AA7" transform="translate(267,185)"/>
<path d="M0 0 C0.66 0.33 1.32 0.66 2 1 C1.07038578 2.15224028 0.1309875 3.29659176 -0.8125 4.4375 C-1.59560547 5.39462891 -1.59560547 5.39462891 -2.39453125 6.37109375 C-4 8 -4 8 -7 9 C-5.44499019 5.18315774 -2.96404505 2.80804268 0 0 Z " fill="#3A3D43" transform="translate(259,177)"/>
<path d="M0 0 C0.66 0.33 1.32 0.66 2 1 C0.88121617 2.17262904 -0.24523051 3.33795138 -1.375 4.5 C-2.00148438 5.1496875 -2.62796875 5.799375 -3.2734375 6.46875 C-5 8 -5 8 -7 8 C-5.50902342 4.2047869 -3.24299151 2.38957269 0 0 Z " fill="#3F120A" transform="translate(278,324)"/>
</svg>
