<svg xmlns="http://www.w3.org/2000/svg" viewBox="0 0 512 512" id="sync">
  <path fill="#2196f3" d="M371.6 132.3c-31.5-29.5-72.4-45.7-115.8-45.6-78.1.1-145.5 53.6-164.1 127.9-1.4 5.4-6.2 9.2-11.7 9.2H22.2c-7.6 0-13.3-6.9-11.9-14.3C32.1 93.6 133.8 6 256 6c67 0 127.8 26.3 172.7 69.2l36-36C479.9 24 506 34.8 506 56.3v135.1c0 13.4-10.8 24.2-24.2 24.2H346.7c-21.6 0-32.3-26.1-17.1-41.3l42-42zm-341.4 164h135.1c21.6 0 32.3 26.1 17.1 41.3l-42.1 42.1c31.5 29.5 72.4 45.7 115.8 45.6 78-.1 145.5-53.6 164.1-127.9 1.4-5.4 6.2-9.2 11.7-9.2h57.8c7.6 0 13.3 6.9 11.9 14.3C479.9 418.4 378.2 506 256 506c-67 0-127.8-26.3-172.7-69.2l-36 36C32.1 488 6 477.2 6 455.7V320.5c0-13.3 10.8-24.2 24.2-24.2z"></path>
</svg>
